<svg width="151" height="66" viewBox="0 0 151 66" fill="none" xmlns="http://www.w3.org/2000/svg">
<path d="M11.9712 60.2891L10.0278 55.2402H4.03174L2.04932 60.2891H1.02393L6.63916 45.9629H7.55713L13.0259 60.2891H11.9712ZM9.70557 54.332L7.73291 48.9805C7.68083 48.8438 7.61572 48.668 7.5376 48.4531C7.46598 48.2383 7.38786 48.0104 7.30322 47.7695C7.2251 47.5286 7.14697 47.3008 7.06885 47.0859C7.00374 47.3138 6.93213 47.5417 6.854 47.7695C6.77588 47.9974 6.70101 48.2188 6.62939 48.4336C6.55778 48.6419 6.48942 48.8307 6.42432 49L4.37354 54.332H9.70557ZM18.4712 49.4688C19.6626 49.4688 20.5773 49.7812 21.2153 50.4062C21.8534 51.0312 22.1724 52.0111 22.1724 53.3457V60.2891H21.1958V53.4043C21.1958 52.3496 20.9549 51.5749 20.4731 51.0801C19.9914 50.5853 19.2915 50.3379 18.3735 50.3379C17.2082 50.3379 16.3162 50.6797 15.6978 51.3633C15.0858 52.0404 14.7798 53.0658 14.7798 54.4395V60.2891H13.7935V49.6738H14.5942L14.7407 51.6074H14.7993C14.9881 51.2103 15.2453 50.8522 15.5708 50.5332C15.9028 50.2077 16.3097 49.9505 16.7915 49.7617C17.2733 49.5664 17.8332 49.4688 18.4712 49.4688ZM28.3208 49.4883C29.4862 49.4883 30.3586 49.7812 30.938 50.3672C31.5174 50.9531 31.8071 51.8874 31.8071 53.1699V60.2891H31.0454L30.8696 58.4336H30.811C30.5832 58.8307 30.3065 59.1855 29.981 59.498C29.6554 59.804 29.255 60.0449 28.7798 60.2207C28.311 60.3965 27.7381 60.4844 27.061 60.4844C26.3774 60.4844 25.7915 60.3704 25.3032 60.1426C24.8215 59.9147 24.4471 59.5827 24.1802 59.1465C23.9198 58.7103 23.7896 58.1797 23.7896 57.5547C23.7896 56.5 24.2257 55.6992 25.0981 55.1523C25.9705 54.599 27.2238 54.2865 28.8579 54.2148L30.8306 54.1172V53.3457C30.8306 52.2585 30.6157 51.4837 30.186 51.0215C29.7563 50.5592 29.1216 50.3281 28.2817 50.3281C27.7349 50.3281 27.2075 50.3997 26.6997 50.543C26.1984 50.6797 25.6873 50.8783 25.1665 51.1387L24.854 50.3184C25.3618 50.0775 25.9054 49.8789 26.4849 49.7227C27.0708 49.5664 27.6828 49.4883 28.3208 49.4883ZM30.8208 54.8887L28.9653 54.9668C27.6177 55.0319 26.5923 55.2728 25.8892 55.6895C25.186 56.1061 24.8345 56.7311 24.8345 57.5645C24.8345 58.235 25.0428 58.7493 25.4595 59.1074C25.8826 59.4655 26.4686 59.6445 27.2173 59.6445C28.3826 59.6445 29.2713 59.3125 29.8833 58.6484C30.5018 57.9844 30.8143 57.0794 30.8208 55.9336V54.8887ZM35.2212 60.2891H34.2251V45.0938H35.2212V60.2891ZM35.9985 49.6738H37.0435L39.6216 56.4121C39.7778 56.8092 39.9146 57.1771 40.0317 57.5156C40.1554 57.8477 40.2629 58.1536 40.354 58.4336C40.4451 58.707 40.52 58.9577 40.5786 59.1855H40.6372C40.7349 58.8861 40.8651 58.502 41.0278 58.0332C41.1906 57.5579 41.3761 57.0306 41.5845 56.4512L44.1333 49.6738H45.188L40.3442 62.2812C40.1099 62.8932 39.8527 63.4108 39.5728 63.834C39.2928 64.2637 38.964 64.5859 38.5864 64.8008C38.2088 65.0221 37.7531 65.1328 37.2192 65.1328C36.9784 65.1328 36.7603 65.1133 36.5649 65.0742C36.3696 65.0417 36.1808 64.9961 35.9985 64.9375V64.0879C36.1678 64.14 36.3403 64.1823 36.5161 64.2148C36.6984 64.2539 36.897 64.2734 37.1118 64.2734C37.4829 64.2734 37.8019 64.1953 38.0688 64.0391C38.3423 63.8893 38.5864 63.6549 38.8013 63.3359C39.0161 63.0169 39.2179 62.61 39.4067 62.1152L40.1294 60.2305L35.9985 49.6738ZM48.7974 59.6348C49.1034 59.6348 49.3866 59.612 49.647 59.5664C49.9139 59.5208 50.1483 59.4622 50.3501 59.3906V60.2109C50.1418 60.2826 49.8976 60.3444 49.6177 60.3965C49.3377 60.4551 49.0285 60.4844 48.6899 60.4844C48.091 60.4844 47.5929 60.3737 47.1958 60.1523C46.7987 59.9245 46.4992 59.5827 46.2974 59.127C46.0955 58.6647 45.9946 58.0788 45.9946 57.3691V50.4941H44.4126V49.9082L45.9849 49.6055L46.3267 47.1055H46.981V49.6738H50.2915V50.4941H46.981V57.3105C46.981 58.0723 47.1209 58.6517 47.4009 59.0488C47.6873 59.4395 48.1528 59.6348 48.7974 59.6348ZM52.6118 49.6738V60.2891H51.6255V49.6738H52.6118ZM52.1333 45.748C52.3807 45.748 52.563 45.8229 52.6802 45.9727C52.7974 46.1159 52.856 46.3112 52.856 46.5586C52.856 46.806 52.7974 47.0013 52.6802 47.1445C52.563 47.2878 52.3807 47.3594 52.1333 47.3594C51.8989 47.3594 51.7231 47.2878 51.606 47.1445C51.4888 47.0013 51.4302 46.806 51.4302 46.5586C51.4302 46.3112 51.4888 46.1159 51.606 45.9727C51.7231 45.8229 51.8989 45.748 52.1333 45.748ZM59.4146 60.4844C58.3599 60.4844 57.4679 60.2663 56.7388 59.8301C56.0161 59.3874 55.4692 58.7591 55.0981 57.9453C54.7336 57.125 54.5513 56.1549 54.5513 55.0352C54.5513 53.8698 54.7629 52.8737 55.186 52.0469C55.6092 51.2135 56.2049 50.5755 56.9731 50.1328C57.7414 49.6901 58.6431 49.4688 59.6782 49.4688C60.186 49.4688 60.658 49.5143 61.0942 49.6055C61.5304 49.6966 61.9243 49.8236 62.2759 49.9863L62.0122 50.8555C61.6476 50.6927 61.2603 50.569 60.8501 50.4844C60.4399 50.3997 60.0461 50.3574 59.6685 50.3574C58.7961 50.3574 58.0539 50.5495 57.4419 50.9336C56.8364 51.3112 56.3709 51.8516 56.0454 52.5547C55.7264 53.2513 55.5669 54.0749 55.5669 55.0254C55.5669 55.9173 55.7036 56.7083 55.9771 57.3984C56.2505 58.082 56.6704 58.6224 57.2368 59.0195C57.8032 59.4102 58.5291 59.6055 59.4146 59.6055C59.9289 59.6055 60.4172 59.5534 60.8794 59.4492C61.3481 59.3451 61.7746 59.2116 62.1587 59.0488V59.9473C61.8136 60.1035 61.4132 60.2305 60.9575 60.3281C60.5083 60.4323 59.994 60.4844 59.4146 60.4844ZM70.3091 57.5059C70.3091 58.1374 70.1496 58.6777 69.8306 59.127C69.5181 59.5697 69.0591 59.9082 68.4536 60.1426C67.8481 60.3704 67.1027 60.4844 66.2173 60.4844C65.4816 60.4844 64.8241 60.4193 64.2446 60.2891C63.6652 60.1589 63.1802 59.9993 62.7896 59.8105V58.834C63.2778 59.0749 63.8182 59.2702 64.4106 59.4199C65.0031 59.5697 65.6118 59.6445 66.2368 59.6445C67.3306 59.6445 68.1183 59.459 68.6001 59.0879C69.0819 58.7168 69.3228 58.209 69.3228 57.5645C69.3228 57.1413 69.2023 56.793 68.9614 56.5195C68.7271 56.2396 68.3885 55.9987 67.9458 55.7969C67.5031 55.5951 66.9692 55.39 66.3442 55.1816C65.6932 54.9603 65.1138 54.7422 64.606 54.5273C64.1047 54.306 63.7108 54.0163 63.4243 53.6582C63.1379 53.2936 62.9946 52.7988 62.9946 52.1738C62.9946 51.321 63.3364 50.6569 64.02 50.1816C64.7036 49.7064 65.6216 49.4688 66.7739 49.4688C67.4119 49.4688 68.0044 49.5306 68.5513 49.6543C69.1047 49.7715 69.606 49.9245 70.0552 50.1133L69.7036 50.9531C69.3 50.7643 68.8345 50.6113 68.3071 50.4941C67.7798 50.377 67.2524 50.3184 66.7251 50.3184C65.8592 50.3184 65.1821 50.4714 64.6938 50.7773C64.2056 51.0833 63.9614 51.5326 63.9614 52.125C63.9614 52.5807 64.0786 52.9388 64.313 53.1992C64.5474 53.4531 64.8826 53.668 65.3188 53.8438C65.755 54.013 66.2726 54.2018 66.8716 54.4102C67.4901 54.625 68.0597 54.8496 68.5806 55.084C69.1079 55.3184 69.5278 55.6211 69.8403 55.9922C70.1528 56.3633 70.3091 56.8678 70.3091 57.5059ZM85.3696 60.2891L83.4263 55.2402H77.4302L75.4478 60.2891H74.4224L80.0376 45.9629H80.9556L86.4243 60.2891H85.3696ZM83.104 54.332L81.1313 48.9805C81.0793 48.8438 81.0142 48.668 80.936 48.4531C80.8644 48.2383 80.7863 48.0104 80.7017 47.7695C80.6235 47.5286 80.5454 47.3008 80.4673 47.0859C80.4022 47.3138 80.3306 47.5417 80.2524 47.7695C80.1743 47.9974 80.0994 48.2188 80.0278 48.4336C79.9562 48.6419 79.8879 48.8307 79.8228 49L77.772 54.332H83.104ZM91.4497 60.4844C90.395 60.4844 89.5031 60.2663 88.7739 59.8301C88.0513 59.3874 87.5044 58.7591 87.1333 57.9453C86.7687 57.125 86.5864 56.1549 86.5864 55.0352C86.5864 53.8698 86.798 52.8737 87.2212 52.0469C87.6444 51.2135 88.2401 50.5755 89.0083 50.1328C89.7765 49.6901 90.6782 49.4688 91.7134 49.4688C92.2212 49.4688 92.6932 49.5143 93.1294 49.6055C93.5656 49.6966 93.9595 49.8236 94.311 49.9863L94.0474 50.8555C93.6828 50.6927 93.2954 50.569 92.8853 50.4844C92.4751 50.3997 92.0812 50.3574 91.7036 50.3574C90.8312 50.3574 90.089 50.5495 89.4771 50.9336C88.8716 51.3112 88.4061 51.8516 88.0806 52.5547C87.7616 53.2513 87.6021 54.0749 87.6021 55.0254C87.6021 55.9173 87.7388 56.7083 88.0122 57.3984C88.2856 58.082 88.7056 58.6224 89.272 59.0195C89.8384 59.4102 90.5643 59.6055 91.4497 59.6055C91.964 59.6055 92.4523 59.5534 92.9146 59.4492C93.3833 59.3451 93.8097 59.2116 94.1938 59.0488V59.9473C93.8488 60.1035 93.4484 60.2305 92.9927 60.3281C92.5435 60.4323 92.0291 60.4844 91.4497 60.4844ZM99.4146 49.4883C100.58 49.4883 101.452 49.7812 102.032 50.3672C102.611 50.9531 102.901 51.8874 102.901 53.1699V60.2891H102.139L101.963 58.4336H101.905C101.677 58.8307 101.4 59.1855 101.075 59.498C100.749 59.804 100.349 60.0449 99.8735 60.2207C99.4048 60.3965 98.8319 60.4844 98.1548 60.4844C97.4712 60.4844 96.8853 60.3704 96.397 60.1426C95.9152 59.9147 95.5409 59.5827 95.2739 59.1465C95.0135 58.7103 94.8833 58.1797 94.8833 57.5547C94.8833 56.5 95.3195 55.6992 96.1919 55.1523C97.0643 54.599 98.3175 54.2865 99.9517 54.2148L101.924 54.1172V53.3457C101.924 52.2585 101.709 51.4837 101.28 51.0215C100.85 50.5592 100.215 50.3281 99.3755 50.3281C98.8286 50.3281 98.3013 50.3997 97.7935 50.543C97.2922 50.6797 96.7811 50.8783 96.2603 51.1387L95.9478 50.3184C96.4556 50.0775 96.9992 49.8789 97.5786 49.7227C98.1646 49.5664 98.7765 49.4883 99.4146 49.4883ZM101.915 54.8887L100.059 54.9668C98.7114 55.0319 97.686 55.2728 96.9829 55.6895C96.2798 56.1061 95.9282 56.7311 95.9282 57.5645C95.9282 58.235 96.1366 58.7493 96.5532 59.1074C96.9764 59.4655 97.5623 59.6445 98.311 59.6445C99.4764 59.6445 100.365 59.3125 100.977 58.6484C101.596 57.9844 101.908 57.0794 101.915 55.9336V54.8887ZM109.157 60.4844C107.705 60.4844 106.598 60.0286 105.836 59.1172C105.081 58.1992 104.704 56.8646 104.704 55.1133C104.704 53.2773 105.104 51.8776 105.905 50.9141C106.706 49.9505 107.822 49.4688 109.254 49.4688C109.866 49.4688 110.397 49.5632 110.846 49.752C111.302 49.9408 111.683 50.1979 111.989 50.5234C112.301 50.8424 112.542 51.207 112.711 51.6172H112.79C112.764 51.2721 112.744 50.901 112.731 50.5039C112.718 50.1068 112.711 49.7422 112.711 49.4102V45.0938H113.698V60.2891H112.897L112.77 58.3457H112.711C112.536 58.7363 112.292 59.0944 111.979 59.4199C111.673 59.7454 111.289 60.0059 110.827 60.2012C110.364 60.39 109.808 60.4844 109.157 60.4844ZM109.264 59.625C110.514 59.625 111.403 59.2376 111.93 58.4629C112.458 57.6816 112.721 56.5684 112.721 55.123V54.9668C112.721 53.4694 112.458 52.3236 111.93 51.5293C111.403 50.7285 110.543 50.3281 109.352 50.3281C108.174 50.3281 107.272 50.7383 106.647 51.5586C106.028 52.3789 105.719 53.5703 105.719 55.1328C105.719 56.6042 106.009 57.7207 106.588 58.4824C107.174 59.2441 108.066 59.625 109.264 59.625ZM120.247 49.4688C121.152 49.4688 121.903 49.6803 122.502 50.1035C123.108 50.5267 123.557 51.1061 123.85 51.8418C124.15 52.5775 124.299 53.4206 124.299 54.3711V55.084H116.633C116.633 56.5423 116.969 57.6621 117.639 58.4434C118.316 59.2246 119.283 59.6152 120.54 59.6152C121.197 59.6152 121.767 59.5632 122.249 59.459C122.737 59.3483 123.277 59.1628 123.87 58.9023V59.8105C123.349 60.0449 122.828 60.2142 122.307 60.3184C121.786 60.429 121.187 60.4844 120.51 60.4844C119.436 60.4844 118.534 60.263 117.805 59.8203C117.083 59.3711 116.536 58.7396 116.165 57.9258C115.8 57.112 115.618 56.1615 115.618 55.0742C115.618 54.013 115.793 53.0592 116.145 52.2129C116.503 51.3665 117.024 50.6992 117.708 50.2109C118.398 49.7161 119.244 49.4688 120.247 49.4688ZM120.237 50.3184C119.221 50.3184 118.398 50.6569 117.766 51.334C117.141 52.0046 116.773 52.9746 116.663 54.2441H123.274C123.274 53.4694 123.163 52.7858 122.942 52.1934C122.721 51.6009 122.385 51.1419 121.936 50.8164C121.493 50.4844 120.927 50.3184 120.237 50.3184ZM137.176 49.4688C138.198 49.4688 139.006 49.765 139.598 50.3574C140.191 50.9499 140.487 51.8841 140.487 53.1602V60.2891H139.52V53.1992C139.52 52.2161 139.295 51.4935 138.846 51.0312C138.397 50.569 137.805 50.3379 137.069 50.3379C136.06 50.3379 135.269 50.6341 134.696 51.2266C134.129 51.8125 133.846 52.737 133.846 54V60.2891H132.87V53.1992C132.87 52.5417 132.765 52.0046 132.557 51.5879C132.355 51.1647 132.072 50.8522 131.708 50.6504C131.343 50.4421 130.913 50.3379 130.418 50.3379C129.761 50.3379 129.191 50.4746 128.709 50.748C128.228 51.015 127.857 51.4316 127.596 51.998C127.336 52.5579 127.206 53.2708 127.206 54.1367V60.2891H126.219V49.6738H127.02L127.167 51.4121H127.225C127.401 51.0671 127.635 50.748 127.928 50.4551C128.221 50.1621 128.583 49.9245 129.012 49.7422C129.448 49.5599 129.959 49.4688 130.545 49.4688C131.307 49.4688 131.952 49.6413 132.479 49.9863C133.013 50.3249 133.384 50.8294 133.592 51.5H133.661C133.947 50.862 134.39 50.3639 134.989 50.0059C135.594 49.6478 136.323 49.4688 137.176 49.4688ZM141.147 49.6738H142.192L144.77 56.4121C144.926 56.8092 145.063 57.1771 145.18 57.5156C145.304 57.8477 145.411 58.1536 145.502 58.4336C145.594 58.707 145.668 58.9577 145.727 59.1855H145.786C145.883 58.8861 146.014 58.502 146.176 58.0332C146.339 57.5579 146.525 57.0306 146.733 56.4512L149.282 49.6738H150.336L145.493 62.2812C145.258 62.8932 145.001 63.4108 144.721 63.834C144.441 64.2637 144.112 64.5859 143.735 64.8008C143.357 65.0221 142.902 65.1328 142.368 65.1328C142.127 65.1328 141.909 65.1133 141.713 65.0742C141.518 65.0417 141.329 64.9961 141.147 64.9375V64.0879C141.316 64.14 141.489 64.1823 141.665 64.2148C141.847 64.2539 142.045 64.2734 142.26 64.2734C142.631 64.2734 142.95 64.1953 143.217 64.0391C143.491 63.8893 143.735 63.6549 143.95 63.3359C144.165 63.0169 144.366 62.61 144.555 62.1152L145.278 60.2305L141.147 49.6738Z" fill="black"/>
<g clip-path="url(#clip0_213_3)">
<path d="M19.907 14.2891H20.574C22.8894 14.3405 25.1671 15.2916 26.803 16.9754C26.199 17.6053 25.5824 18.2094 24.9909 18.8392C24.0723 17.9909 22.9649 17.3353 21.7569 17.104C19.97 16.7184 18.0446 17.0654 16.5471 18.1065C14.9112 19.1991 13.8039 21.05 13.5648 23.0294C13.3005 24.9831 13.8416 27.0397 15.0874 28.5564C16.2829 30.0346 18.1076 30.96 19.9951 31.0243C21.7569 31.1271 23.5941 30.5744 24.8777 29.3148C25.8844 28.4279 26.35 27.0783 26.501 25.7672C24.4121 25.7672 22.3232 25.7801 20.2342 25.7672V23.1194H29.0304C29.4834 25.96 28.829 29.1605 26.7149 31.1914C25.3055 32.631 23.355 33.4793 21.3668 33.6464C19.4414 33.8392 17.4532 33.4664 15.7418 32.5153C13.6906 31.397 12.0547 29.5076 11.2493 27.2839C10.4943 25.2402 10.4817 22.9266 11.1864 20.87C11.8282 18.9934 13.0614 17.3353 14.647 16.1785C16.1696 15.0346 18.0195 14.4047 19.907 14.2891Z" fill="#4285F4"/>
<path d="M70.3684 14.9574H73.0614V33.3122C72.1679 33.3122 71.2619 33.325 70.3684 33.2993C70.381 27.1939 70.3684 21.0756 70.3684 14.9574Z" fill="#34A853"/>
<path d="M35.0202 21.32C36.6813 20.9986 38.4808 21.3585 39.8525 22.3739C41.0983 23.2737 41.9666 24.6876 42.2308 26.23C42.5706 28.0166 42.1427 29.9703 41.0102 31.3842C39.7895 32.9652 37.7887 33.8135 35.8382 33.685C34.0513 33.5822 32.3147 32.6696 31.2577 31.1786C30.0622 29.5333 29.7728 27.2711 30.4271 25.3431C31.0815 23.2737 32.9313 21.6927 35.0202 21.32ZM35.3978 23.7621C34.7182 23.9421 34.089 24.3405 33.636 24.9061C32.4154 26.3971 32.4909 28.8264 33.8374 30.2146C34.605 31.0115 35.7627 31.3842 36.8323 31.1657C37.8265 30.9858 38.6947 30.3045 39.1729 29.4048C40.0035 27.8752 39.7644 25.7673 38.4934 24.5719C37.6754 23.8007 36.48 23.4793 35.3978 23.7621Z" fill="#EA4335"/>
<path d="M48.3592 21.3199C50.2594 20.9472 52.3357 21.487 53.7577 22.8495C56.0731 24.9703 56.3248 28.942 54.3491 31.3842C53.1536 32.9266 51.2157 33.7749 49.303 33.685C47.4783 33.6335 45.6788 32.7081 44.5966 31.1785C43.376 29.4947 43.1117 27.1811 43.8038 25.2145C44.4959 23.2094 46.308 21.6798 48.3592 21.3199ZM48.7367 23.7621C48.0572 23.942 47.428 24.3405 46.975 24.8932C45.7669 26.3585 45.8172 28.7492 47.1134 30.1503C47.881 30.9857 49.0765 31.397 50.1838 31.1657C51.1654 30.9729 52.0463 30.3045 52.5245 29.4048C53.3424 27.8623 53.1033 25.7544 51.8198 24.559C51.0018 23.7878 49.8063 23.4793 48.7367 23.7621Z" fill="#FBBC05"/>
<path d="M59.6721 22.0655C61.1193 21.14 63.0446 20.8829 64.605 21.6799C65.0958 21.8984 65.4984 22.2711 65.8885 22.6439C65.9011 22.2968 65.8885 21.9369 65.9011 21.577C66.7443 21.5899 67.5874 21.577 68.4431 21.5899V32.9266C68.4305 34.6362 68.0026 36.4485 66.7946 37.6953C65.4733 39.0706 63.4473 39.4948 61.6226 39.212C59.6721 38.9164 57.9733 37.4639 57.2182 35.6259C57.9733 35.2531 58.7661 34.9575 59.5463 34.6104C59.9867 35.6644 60.8802 36.5642 62.0001 36.7698C63.1201 36.9755 64.4162 36.6927 65.1461 35.7415C65.9263 34.7647 65.9263 33.4279 65.8885 32.2326C65.3097 32.811 64.6427 33.3251 63.8374 33.5179C62.0882 34.0192 60.1629 33.4022 58.8164 32.194C57.4573 30.9858 56.652 29.122 56.7275 27.2711C56.7652 25.176 57.9229 23.158 59.6721 22.0655ZM62.277 23.7107C61.5094 23.8392 60.7921 24.2763 60.3013 24.8804C59.1184 26.32 59.1184 28.6207 60.3139 30.0346C60.9934 30.8701 62.0882 31.3328 63.1453 31.2171C64.1394 31.1143 65.058 30.4716 65.5488 29.5847C66.3793 28.0809 66.2409 26.0372 65.1209 24.7261C64.4288 23.9164 63.3214 23.5179 62.277 23.7107Z" fill="#4285F4"/>
<path d="M76.2954 22.721C77.8055 21.2814 80.1335 20.7929 82.0714 21.5513C83.9087 22.2582 85.079 24.0449 85.6704 25.8829C82.9397 27.0397 80.2216 28.1837 77.4909 29.3405C77.8684 30.0731 78.4473 30.7415 79.2275 31.0114C80.3223 31.4099 81.631 31.2685 82.5496 30.523C82.9146 30.2402 83.204 29.8675 83.4808 29.5076C84.1729 29.9832 84.8651 30.4459 85.5572 30.9215C84.5756 32.4253 82.9271 33.4793 81.1528 33.6464C79.1897 33.8906 77.1008 33.1194 75.8298 31.5513C73.7409 29.0834 73.9422 24.9446 76.2954 22.721ZM77.6419 25.0988C77.2141 25.7287 77.0379 26.4999 77.0505 27.2582C78.8751 26.487 80.6998 25.7158 82.5245 24.9317C82.2224 24.212 81.4926 23.7749 80.7501 23.6593C79.5547 23.4407 78.3089 24.0963 77.6419 25.0988Z" fill="#EA4335"/>
</g>
<path d="M109.67 18.2891L109.67 30.2891" stroke="#E37400" stroke-width="8" stroke-linecap="round"/>
<path d="M120.67 5.28906L120.67 30.2891" stroke="#FBBC04" stroke-width="9" stroke-linecap="round"/>
<circle cx="98.6704" cy="30.2891" r="4" fill="#E37400"/>
<defs>
<clipPath id="clip0_213_3">
<rect width="75" height="25" fill="white" transform="translate(10.6704 14.2891)"/>
</clipPath>
</defs>
</svg>
