<svg width="151" height="66" viewBox="0 0 151 66" fill="none" xmlns="http://www.w3.org/2000/svg">
<path d="M11.9711 60.2891L10.0278 55.2402H4.03168L2.04926 60.2891H1.02386L6.6391 45.9629H7.55707L13.0258 60.2891H11.9711ZM9.70551 54.332L7.73285 48.9805C7.68077 48.8438 7.61566 48.668 7.53754 48.4531C7.46592 48.2383 7.3878 48.0104 7.30316 47.7695C7.22504 47.5286 7.14691 47.3008 7.06879 47.0859C7.00368 47.3138 6.93207 47.5417 6.85394 47.7695C6.77582 47.9974 6.70095 48.2188 6.62933 48.4336C6.55772 48.6419 6.48936 48.8307 6.42426 49L4.37347 54.332H9.70551ZM18.4711 49.4688C19.6625 49.4688 20.5773 49.7812 21.2153 50.4062C21.8533 51.0312 22.1723 52.0111 22.1723 53.3457V60.2891H21.1957V53.4043C21.1957 52.3496 20.9549 51.5749 20.4731 51.0801C19.9913 50.5853 19.2914 50.3379 18.3735 50.3379C17.2081 50.3379 16.3162 50.6797 15.6977 51.3633C15.0857 52.0404 14.7797 53.0658 14.7797 54.4395V60.2891H13.7934V49.6738H14.5942L14.7407 51.6074H14.7993C14.9881 51.2103 15.2452 50.8522 15.5707 50.5332C15.9028 50.2077 16.3097 49.9505 16.7914 49.7617C17.2732 49.5664 17.8331 49.4688 18.4711 49.4688ZM28.3207 49.4883C29.4861 49.4883 30.3585 49.7812 30.9379 50.3672C31.5174 50.9531 31.8071 51.8874 31.8071 53.1699V60.2891H31.0453L30.8696 58.4336H30.811C30.5831 58.8307 30.3064 59.1855 29.9809 59.498C29.6554 59.804 29.255 60.0449 28.7797 60.2207C28.311 60.3965 27.7381 60.4844 27.061 60.4844C26.3774 60.4844 25.7914 60.3704 25.3032 60.1426C24.8214 59.9147 24.447 59.5827 24.1801 59.1465C23.9197 58.7103 23.7895 58.1797 23.7895 57.5547C23.7895 56.5 24.2257 55.6992 25.0981 55.1523C25.9705 54.599 27.2237 54.2865 28.8578 54.2148L30.8305 54.1172V53.3457C30.8305 52.2585 30.6157 51.4837 30.186 51.0215C29.7563 50.5592 29.1215 50.3281 28.2817 50.3281C27.7348 50.3281 27.2075 50.3997 26.6996 50.543C26.1983 50.6797 25.6873 50.8783 25.1664 51.1387L24.8539 50.3184C25.3618 50.0775 25.9054 49.8789 26.4848 49.7227C27.0707 49.5664 27.6827 49.4883 28.3207 49.4883ZM30.8207 54.8887L28.9653 54.9668C27.6176 55.0319 26.5922 55.2728 25.8891 55.6895C25.186 56.1061 24.8344 56.7311 24.8344 57.5645C24.8344 58.235 25.0427 58.7493 25.4594 59.1074C25.8826 59.4655 26.4685 59.6445 27.2172 59.6445C28.3826 59.6445 29.2713 59.3125 29.8832 58.6484C30.5017 57.9844 30.8142 57.0794 30.8207 55.9336V54.8887ZM35.2211 60.2891H34.225V45.0938H35.2211V60.2891ZM35.9985 49.6738H37.0434L39.6215 56.4121C39.7778 56.8092 39.9145 57.1771 40.0317 57.5156C40.1554 57.8477 40.2628 58.1536 40.3539 58.4336C40.4451 58.707 40.52 58.9577 40.5786 59.1855H40.6371C40.7348 58.8861 40.865 58.502 41.0278 58.0332C41.1905 57.5579 41.3761 57.0306 41.5844 56.4512L44.1332 49.6738H45.1879L40.3442 62.2812C40.1098 62.8932 39.8526 63.4108 39.5727 63.834C39.2927 64.2637 38.964 64.5859 38.5864 64.8008C38.2088 65.0221 37.753 65.1328 37.2192 65.1328C36.9783 65.1328 36.7602 65.1133 36.5649 65.0742C36.3696 65.0417 36.1808 64.9961 35.9985 64.9375V64.0879C36.1677 64.14 36.3403 64.1823 36.5161 64.2148C36.6983 64.2539 36.8969 64.2734 37.1118 64.2734C37.4828 64.2734 37.8019 64.1953 38.0688 64.0391C38.3422 63.8893 38.5864 63.6549 38.8012 63.3359C39.0161 63.0169 39.2179 62.61 39.4067 62.1152L40.1293 60.2305L35.9985 49.6738ZM48.7973 59.6348C49.1033 59.6348 49.3865 59.612 49.6469 59.5664C49.9138 59.5208 50.1482 59.4622 50.35 59.3906V60.2109C50.1417 60.2826 49.8976 60.3444 49.6176 60.3965C49.3377 60.4551 49.0284 60.4844 48.6899 60.4844C48.0909 60.4844 47.5929 60.3737 47.1957 60.1523C46.7986 59.9245 46.4991 59.5827 46.2973 59.127C46.0955 58.6647 45.9946 58.0788 45.9946 57.3691V50.4941H44.4125V49.9082L45.9848 49.6055L46.3266 47.1055H46.9809V49.6738H50.2914V50.4941H46.9809V57.3105C46.9809 58.0723 47.1209 58.6517 47.4008 59.0488C47.6873 59.4395 48.1528 59.6348 48.7973 59.6348ZM52.6118 49.6738V60.2891H51.6254V49.6738H52.6118ZM52.1332 45.748C52.3806 45.748 52.5629 45.8229 52.6801 45.9727C52.7973 46.1159 52.8559 46.3112 52.8559 46.5586C52.8559 46.806 52.7973 47.0013 52.6801 47.1445C52.5629 47.2878 52.3806 47.3594 52.1332 47.3594C51.8989 47.3594 51.7231 47.2878 51.6059 47.1445C51.4887 47.0013 51.4301 46.806 51.4301 46.5586C51.4301 46.3112 51.4887 46.1159 51.6059 45.9727C51.7231 45.8229 51.8989 45.748 52.1332 45.748ZM59.4145 60.4844C58.3598 60.4844 57.4679 60.2663 56.7387 59.8301C56.0161 59.3874 55.4692 58.7591 55.0981 57.9453C54.7335 57.125 54.5512 56.1549 54.5512 55.0352C54.5512 53.8698 54.7628 52.8737 55.186 52.0469C55.6092 51.2135 56.2049 50.5755 56.9731 50.1328C57.7413 49.6901 58.643 49.4688 59.6782 49.4688C60.186 49.4688 60.658 49.5143 61.0942 49.6055C61.5304 49.6966 61.9243 49.8236 62.2758 49.9863L62.0121 50.8555C61.6476 50.6927 61.2602 50.569 60.85 50.4844C60.4399 50.3997 60.046 50.3574 59.6684 50.3574C58.796 50.3574 58.0538 50.5495 57.4418 50.9336C56.8364 51.3112 56.3709 51.8516 56.0453 52.5547C55.7263 53.2513 55.5668 54.0749 55.5668 55.0254C55.5668 55.9173 55.7036 56.7083 55.977 57.3984C56.2504 58.082 56.6703 58.6224 57.2368 59.0195C57.8032 59.4102 58.5291 59.6055 59.4145 59.6055C59.9288 59.6055 60.4171 59.5534 60.8793 59.4492C61.3481 59.3451 61.7745 59.2116 62.1586 59.0488V59.9473C61.8136 60.1035 61.4132 60.2305 60.9575 60.3281C60.5082 60.4323 59.9939 60.4844 59.4145 60.4844ZM70.309 57.5059C70.309 58.1374 70.1495 58.6777 69.8305 59.127C69.518 59.5697 69.059 59.9082 68.4536 60.1426C67.8481 60.3704 67.1026 60.4844 66.2172 60.4844C65.4815 60.4844 64.824 60.4193 64.2446 60.2891C63.6651 60.1589 63.1801 59.9993 62.7895 59.8105V58.834C63.2778 59.0749 63.8181 59.2702 64.4106 59.4199C65.003 59.5697 65.6118 59.6445 66.2368 59.6445C67.3305 59.6445 68.1183 59.459 68.6 59.0879C69.0818 58.7168 69.3227 58.209 69.3227 57.5645C69.3227 57.1413 69.2023 56.793 68.9614 56.5195C68.727 56.2396 68.3884 55.9987 67.9457 55.7969C67.503 55.5951 66.9692 55.39 66.3442 55.1816C65.6931 54.9603 65.1137 54.7422 64.6059 54.5273C64.1046 54.306 63.7107 54.0163 63.4243 53.6582C63.1378 53.2936 62.9946 52.7988 62.9946 52.1738C62.9946 51.321 63.3364 50.6569 64.02 50.1816C64.7036 49.7064 65.6215 49.4688 66.7739 49.4688C67.4119 49.4688 68.0043 49.5306 68.5512 49.6543C69.1046 49.7715 69.6059 49.9245 70.0551 50.1133L69.7036 50.9531C69.2999 50.7643 68.8344 50.6113 68.3071 50.4941C67.7797 50.377 67.2524 50.3184 66.725 50.3184C65.8592 50.3184 65.1821 50.4714 64.6938 50.7773C64.2055 51.0833 63.9614 51.5326 63.9614 52.125C63.9614 52.5807 64.0786 52.9388 64.3129 53.1992C64.5473 53.4531 64.8826 53.668 65.3188 53.8438C65.755 54.013 66.2726 54.2018 66.8715 54.4102C67.49 54.625 68.0597 54.8496 68.5805 55.084C69.1078 55.3184 69.5278 55.6211 69.8403 55.9922C70.1528 56.3633 70.309 56.8678 70.309 57.5059ZM85.3696 60.2891L83.4262 55.2402H77.4301L75.4477 60.2891H74.4223L80.0375 45.9629H80.9555L86.4243 60.2891H85.3696ZM83.1039 54.332L81.1313 48.9805C81.0792 48.8438 81.0141 48.668 80.936 48.4531C80.8644 48.2383 80.7862 48.0104 80.7016 47.7695C80.6235 47.5286 80.5453 47.3008 80.4672 47.0859C80.4021 47.3138 80.3305 47.5417 80.2524 47.7695C80.1743 47.9974 80.0994 48.2188 80.0278 48.4336C79.9562 48.6419 79.8878 48.8307 79.8227 49L77.7719 54.332H83.1039ZM91.4496 60.4844C90.395 60.4844 89.503 60.2663 88.7739 59.8301C88.0512 59.3874 87.5043 58.7591 87.1332 57.9453C86.7687 57.125 86.5864 56.1549 86.5864 55.0352C86.5864 53.8698 86.798 52.8737 87.2211 52.0469C87.6443 51.2135 88.24 50.5755 89.0082 50.1328C89.7765 49.6901 90.6782 49.4688 91.7133 49.4688C92.2211 49.4688 92.6931 49.5143 93.1293 49.6055C93.5655 49.6966 93.9594 49.8236 94.311 49.9863L94.0473 50.8555C93.6827 50.6927 93.2953 50.569 92.8852 50.4844C92.475 50.3997 92.0812 50.3574 91.7036 50.3574C90.8312 50.3574 90.089 50.5495 89.477 50.9336C88.8715 51.3112 88.406 51.8516 88.0805 52.5547C87.7615 53.2513 87.602 54.0749 87.602 55.0254C87.602 55.9173 87.7387 56.7083 88.0121 57.3984C88.2856 58.082 88.7055 58.6224 89.2719 59.0195C89.8383 59.4102 90.5642 59.6055 91.4496 59.6055C91.964 59.6055 92.4523 59.5534 92.9145 59.4492C93.3832 59.3451 93.8097 59.2116 94.1938 59.0488V59.9473C93.8487 60.1035 93.4483 60.2305 92.9926 60.3281C92.5434 60.4323 92.0291 60.4844 91.4496 60.4844ZM99.4145 49.4883C100.58 49.4883 101.452 49.7812 102.032 50.3672C102.611 50.9531 102.901 51.8874 102.901 53.1699V60.2891H102.139L101.963 58.4336H101.905C101.677 58.8307 101.4 59.1855 101.075 59.498C100.749 59.804 100.349 60.0449 99.8735 60.2207C99.4047 60.3965 98.8318 60.4844 98.1547 60.4844C97.4711 60.4844 96.8852 60.3704 96.3969 60.1426C95.9151 59.9147 95.5408 59.5827 95.2739 59.1465C95.0134 58.7103 94.8832 58.1797 94.8832 57.5547C94.8832 56.5 95.3194 55.6992 96.1918 55.1523C97.0642 54.599 98.3175 54.2865 99.9516 54.2148L101.924 54.1172V53.3457C101.924 52.2585 101.709 51.4837 101.28 51.0215C100.85 50.5592 100.215 50.3281 99.3754 50.3281C98.8286 50.3281 98.3012 50.3997 97.7934 50.543C97.2921 50.6797 96.781 50.8783 96.2602 51.1387L95.9477 50.3184C96.4555 50.0775 96.9991 49.8789 97.5786 49.7227C98.1645 49.5664 98.7765 49.4883 99.4145 49.4883ZM101.914 54.8887L100.059 54.9668C98.7114 55.0319 97.686 55.2728 96.9828 55.6895C96.2797 56.1061 95.9282 56.7311 95.9282 57.5645C95.9282 58.235 96.1365 58.7493 96.5532 59.1074C96.9763 59.4655 97.5623 59.6445 98.311 59.6445C99.4763 59.6445 100.365 59.3125 100.977 58.6484C101.595 57.9844 101.908 57.0794 101.914 55.9336V54.8887ZM109.157 60.4844C107.705 60.4844 106.598 60.0286 105.836 59.1172C105.081 58.1992 104.704 56.8646 104.704 55.1133C104.704 53.2773 105.104 51.8776 105.905 50.9141C106.706 49.9505 107.822 49.4688 109.254 49.4688C109.866 49.4688 110.397 49.5632 110.846 49.752C111.302 49.9408 111.683 50.1979 111.989 50.5234C112.301 50.8424 112.542 51.207 112.711 51.6172H112.789C112.763 51.2721 112.744 50.901 112.731 50.5039C112.718 50.1068 112.711 49.7422 112.711 49.4102V45.0938H113.698V60.2891H112.897L112.77 58.3457H112.711C112.536 58.7363 112.291 59.0944 111.979 59.4199C111.673 59.7454 111.289 60.0059 110.827 60.2012C110.364 60.39 109.808 60.4844 109.157 60.4844ZM109.264 59.625C110.514 59.625 111.403 59.2376 111.93 58.4629C112.457 57.6816 112.721 56.5684 112.721 55.123V54.9668C112.721 53.4694 112.457 52.3236 111.93 51.5293C111.403 50.7285 110.543 50.3281 109.352 50.3281C108.174 50.3281 107.272 50.7383 106.647 51.5586C106.028 52.3789 105.719 53.5703 105.719 55.1328C105.719 56.6042 106.009 57.7207 106.588 58.4824C107.174 59.2441 108.066 59.625 109.264 59.625ZM120.247 49.4688C121.151 49.4688 121.903 49.6803 122.502 50.1035C123.108 50.5267 123.557 51.1061 123.85 51.8418C124.15 52.5775 124.299 53.4206 124.299 54.3711V55.084H116.633C116.633 56.5423 116.969 57.6621 117.639 58.4434C118.316 59.2246 119.283 59.6152 120.539 59.6152C121.197 59.6152 121.767 59.5632 122.248 59.459C122.737 59.3483 123.277 59.1628 123.87 58.9023V59.8105C123.349 60.0449 122.828 60.2142 122.307 60.3184C121.786 60.429 121.187 60.4844 120.51 60.4844C119.436 60.4844 118.534 60.263 117.805 59.8203C117.082 59.3711 116.536 58.7396 116.164 57.9258C115.8 57.112 115.618 56.1615 115.618 55.0742C115.618 54.013 115.793 53.0592 116.145 52.2129C116.503 51.3665 117.024 50.6992 117.707 50.2109C118.398 49.7161 119.244 49.4688 120.247 49.4688ZM120.237 50.3184C119.221 50.3184 118.398 50.6569 117.766 51.334C117.141 52.0046 116.773 52.9746 116.663 54.2441H123.274C123.274 53.4694 123.163 52.7858 122.942 52.1934C122.72 51.6009 122.385 51.1419 121.936 50.8164C121.493 50.4844 120.927 50.3184 120.237 50.3184ZM137.176 49.4688C138.198 49.4688 139.006 49.765 139.598 50.3574C140.191 50.9499 140.487 51.8841 140.487 53.1602V60.2891H139.52V53.1992C139.52 52.2161 139.295 51.4935 138.846 51.0312C138.397 50.569 137.804 50.3379 137.069 50.3379C136.06 50.3379 135.269 50.6341 134.696 51.2266C134.129 51.8125 133.846 52.737 133.846 54V60.2891H132.87V53.1992C132.87 52.5417 132.765 52.0046 132.557 51.5879C132.355 51.1647 132.072 50.8522 131.707 50.6504C131.343 50.4421 130.913 50.3379 130.418 50.3379C129.761 50.3379 129.191 50.4746 128.709 50.748C128.228 51.015 127.857 51.4316 127.596 51.998C127.336 52.5579 127.206 53.2708 127.206 54.1367V60.2891H126.219V49.6738H127.02L127.166 51.4121H127.225C127.401 51.0671 127.635 50.748 127.928 50.4551C128.221 50.1621 128.582 49.9245 129.012 49.7422C129.448 49.5599 129.959 49.4688 130.545 49.4688C131.307 49.4688 131.952 49.6413 132.479 49.9863C133.013 50.3249 133.384 50.8294 133.592 51.5H133.661C133.947 50.862 134.39 50.3639 134.989 50.0059C135.594 49.6478 136.323 49.4688 137.176 49.4688ZM141.147 49.6738H142.192L144.77 56.4121C144.926 56.8092 145.063 57.1771 145.18 57.5156C145.304 57.8477 145.411 58.1536 145.502 58.4336C145.594 58.707 145.668 58.9577 145.727 59.1855H145.786C145.883 58.8861 146.013 58.502 146.176 58.0332C146.339 57.5579 146.525 57.0306 146.733 56.4512L149.282 49.6738H150.336L145.493 62.2812C145.258 62.8932 145.001 63.4108 144.721 63.834C144.441 64.2637 144.112 64.5859 143.735 64.8008C143.357 65.0221 142.901 65.1328 142.368 65.1328C142.127 65.1328 141.909 65.1133 141.713 65.0742C141.518 65.0417 141.329 64.9961 141.147 64.9375V64.0879C141.316 64.14 141.489 64.1823 141.664 64.2148C141.847 64.2539 142.045 64.2734 142.26 64.2734C142.631 64.2734 142.95 64.1953 143.217 64.0391C143.491 63.8893 143.735 63.6549 143.95 63.3359C144.164 63.0169 144.366 62.61 144.555 62.1152L145.278 60.2305L141.147 49.6738Z" fill="white"/>
<!--final google-->
<g clip-path="url(#clip0_162_14)">
<path d="M19.907 14.2891H20.5739C22.8894 14.3405 25.1671 15.2916 26.803 16.9754C26.1989 17.6053 25.5823 18.2094 24.9909 18.8392C24.0723 17.9909 22.9649 17.3353 21.7568 17.104C19.9699 16.7184 18.0446 17.0654 16.5471 18.1065C14.9112 19.1991 13.8038 21.05 13.5647 23.0294C13.3004 24.9831 13.8416 27.0397 15.0874 28.5564C16.2828 30.0346 18.1075 30.96 19.9951 31.0243C21.7568 31.1271 23.5941 30.5744 24.8776 29.3148C25.8843 28.4279 26.3499 27.0783 26.5009 25.7672C24.412 25.7672 22.3231 25.7801 20.2342 25.7672V23.1194H29.0303C29.4833 25.96 28.829 29.1605 26.7149 31.1914C25.3055 32.631 23.355 33.4793 21.3667 33.6464C19.4414 33.8392 17.4531 33.4664 15.7417 32.5153C13.6905 31.397 12.0546 29.5076 11.2493 27.2839C10.4942 25.2402 10.4817 22.9266 11.1863 20.87C11.8281 18.9934 13.0613 17.3353 14.6469 16.1785C16.1696 15.0346 18.0194 14.4047 19.907 14.2891Z" fill="#4285F4"/>
<path d="M70.3683 14.9574H73.0613V33.3122C72.1678 33.3122 71.2618 33.325 70.3683 33.2993C70.3809 27.1939 70.3683 21.0756 70.3683 14.9574Z" fill="#34A853"/>
<path d="M35.0202 21.32C36.6813 20.9986 38.4808 21.3585 39.8524 22.3739C41.0982 23.2737 41.9665 24.6876 42.2308 26.23C42.5705 28.0166 42.1427 29.9703 41.0101 31.3842C39.7895 32.9652 37.7886 33.8135 35.8381 33.685C34.0512 33.5822 32.3146 32.6696 31.2576 31.1786C30.0621 29.5333 29.7727 27.2711 30.4271 25.3431C31.0814 23.2737 32.9313 21.6927 35.0202 21.32ZM35.3977 23.7621C34.7182 23.9421 34.089 24.3405 33.636 24.9061C32.4153 26.3971 32.4908 28.8264 33.8373 30.2146C34.6049 31.0115 35.7626 31.3842 36.8323 31.1657C37.8264 30.9858 38.6947 30.3045 39.1729 29.4048C40.0034 27.8752 39.7643 25.7673 38.4933 24.5719C37.6754 23.8007 36.4799 23.4793 35.3977 23.7621Z" fill="#EA4335"/>
<path d="M48.3591 21.3199C50.2593 20.9472 52.3356 21.487 53.7576 22.8495C56.073 24.9703 56.3247 28.942 54.3491 31.3842C53.1536 32.9266 51.2157 33.7749 49.3029 33.685C47.4783 33.6335 45.6788 32.7081 44.5965 31.1785C43.3759 29.4947 43.1116 27.1811 43.8038 25.2145C44.4959 23.2094 46.308 21.6798 48.3591 21.3199ZM48.7366 23.7621C48.0571 23.942 47.4279 24.3405 46.9749 24.8932C45.7668 26.3585 45.8172 28.7492 47.1133 30.1503C47.8809 30.9857 49.0764 31.397 50.1838 31.1657C51.1653 30.9729 52.0462 30.3045 52.5244 29.4048C53.3423 27.8623 53.1033 25.7544 51.8197 24.559C51.0017 23.7878 49.8063 23.4793 48.7366 23.7621Z" fill="#FBBC05"/>
<path d="M59.672 22.0655C61.1192 21.14 63.0445 20.8829 64.6049 21.6799C65.0957 21.8984 65.4984 22.2711 65.8885 22.6439C65.9011 22.2968 65.8885 21.9369 65.9011 21.577C66.7442 21.5899 67.5873 21.577 68.443 21.5899V32.9266C68.4304 34.6362 68.0026 36.4485 66.7945 37.6953C65.4732 39.0706 63.4472 39.4948 61.6225 39.212C59.672 38.9164 57.9732 37.4639 57.2182 35.6259C57.9732 35.2531 58.766 34.9575 59.5462 34.6104C59.9866 35.6644 60.8801 36.5642 62.0001 36.7698C63.12 36.9755 64.4162 36.6927 65.146 35.7415C65.9262 34.7647 65.9262 33.4279 65.8885 32.2326C65.3096 32.811 64.6427 33.3251 63.8373 33.5179C62.0882 34.0192 60.1628 33.4022 58.8163 32.194C57.4573 30.9858 56.6519 29.122 56.7274 27.2711C56.7652 25.176 57.9229 23.158 59.672 22.0655ZM62.2769 23.7107C61.5093 23.8392 60.792 24.2763 60.3012 24.8804C59.1184 26.32 59.1184 28.6207 60.3138 30.0346C60.9934 30.8701 62.0882 31.3328 63.1452 31.2171C64.1393 31.1143 65.058 30.4716 65.5487 29.5847C66.3793 28.0809 66.2408 26.0372 65.1209 24.7261C64.4288 23.9164 63.3214 23.5179 62.2769 23.7107Z" fill="#4285F4"/>
<path d="M76.2954 22.721C77.8054 21.2814 80.1335 20.7929 82.0714 21.5513C83.9086 22.2582 85.0789 24.0449 85.6704 25.8829C82.9397 27.0397 80.2215 28.1837 77.4908 29.3405C77.8684 30.0731 78.4472 30.7415 79.2274 31.0114C80.3222 31.4099 81.6309 31.2685 82.5496 30.523C82.9145 30.2402 83.2039 29.8675 83.4808 29.5076C84.1729 29.9832 84.865 30.4459 85.5571 30.9215C84.5756 32.4253 82.9271 33.4793 81.1527 33.6464C79.1897 33.8906 77.1007 33.1194 75.8298 31.5513C73.7408 29.0834 73.9422 24.9446 76.2954 22.721ZM77.6418 25.0988C77.214 25.7287 77.0378 26.4999 77.0504 27.2582C78.8751 26.487 80.6997 25.7158 82.5244 24.9317C82.2224 24.212 81.4925 23.7749 80.7501 23.6593C79.5546 23.4407 78.3088 24.0963 77.6418 25.0988Z" fill="#EA4335"/>
</g>
<!--final google-->
<path d="M109.67 18.2891L109.67 30.2891" stroke="#E37400" stroke-width="8" stroke-linecap="round"/>
<path d="M120.67 5.28906L120.67 30.2891" stroke="#FBBC04" stroke-width="9" stroke-linecap="round"/>
<circle cx="98.6703" cy="30.2891" r="4" fill="#E37400"/>
<defs>
<clipPath id="clip0_162_14">
<rect width="75" height="25" fill="black" transform="translate(10.6703 14.2891)"/>
</clipPath>
</defs>
</svg>
