<svg width="190" height="139" viewBox="0 0 190 139" fill="none" xmlns="http://www.w3.org/2000/svg">
<path d="M95.4692 81.9618C96.6455 81.9196 97.8218 81.9196 98.998 81.9618C99.9087 81.9618 100.743 82.5933 101.256 83.4144C101.673 84.1302 101.692 85.0144 101.578 85.8355C101.464 86.6565 100.914 87.3092 100.326 87.7723C99.2636 88.5092 97.9925 88.1723 96.8162 88.2565C96.7024 89.625 96.8162 91.0145 96.7783 92.3829C96.3419 92.425 95.9056 92.425 95.4692 92.3829C95.4503 88.9092 95.4313 85.4355 95.4692 81.9618ZM96.7973 83.4144C96.7214 84.5302 96.7024 85.6671 96.7783 86.8039C97.5941 86.8039 98.4099 86.8671 99.2257 86.7618C100.326 86.3407 100.611 84.5723 99.719 83.7512C98.8652 83.1407 97.7649 83.4986 96.7973 83.4144ZM115.086 84.7828C115.105 84.1302 115.029 83.4775 115.162 82.846C115.58 82.846 115.997 82.846 116.433 82.867C116.471 83.4986 116.433 84.1302 116.471 84.7618C116.908 85.0144 117.477 84.8249 117.989 84.9092C118.008 85.3513 118.008 85.7934 117.989 86.2565C117.477 86.2776 116.965 86.2986 116.471 86.3618C116.471 87.7092 116.452 89.0565 116.471 90.425C116.452 90.7829 116.604 91.1829 116.946 91.2671C117.325 91.2671 117.704 91.2671 118.084 91.225C118.122 91.6882 118.084 92.1513 117.989 92.5934C117.382 92.6355 116.756 92.7197 116.149 92.5303C115.674 92.2145 115.181 91.7303 115.162 91.0776C115.029 89.5197 115.2 87.9618 115.067 86.4039C114.688 86.3407 114.29 86.2776 113.91 86.2144C113.91 85.7934 113.91 85.3723 113.929 84.9512C114.308 84.867 114.726 84.9091 115.086 84.7828ZM102.717 86.2355C103.76 84.067 107.08 84.067 108.143 86.2355C108.446 86.9513 108.37 87.7723 108.389 88.5302C108.37 89.8144 108.408 91.0987 108.37 92.3829C108.029 92.404 107.687 92.404 107.346 92.3829C107.232 92.2145 107.137 92.025 107.023 91.8566C106.245 92.404 105.335 92.9724 104.405 92.6145C103.039 92.3829 101.996 90.6566 102.603 89.2039C102.982 88.0881 104.083 87.5829 105.088 87.4986C105.79 87.4355 106.473 87.7092 107.175 87.7513C107.099 86.846 106.492 85.9618 105.6 86.0249C104.822 85.8776 104.177 86.4039 103.665 86.9934C103.286 86.8039 102.982 86.5302 102.717 86.2355ZM103.798 90.2145C103.855 90.9724 104.595 91.3934 105.221 91.3513C106.207 91.2671 107.004 90.3829 107.061 89.2881C106.53 88.7618 105.733 88.7197 105.069 88.7829C104.405 88.846 103.722 89.4144 103.798 90.2145ZM120.436 85.4776C121.044 85.0776 121.67 84.5512 122.447 84.6355C123.757 84.5091 124.933 85.7934 124.933 87.2039C124.952 88.9302 124.933 90.6355 124.933 92.3618C124.496 92.4039 124.06 92.425 123.624 92.3829C123.567 90.6776 123.7 88.9723 123.548 87.2671C123.472 86.1723 122.258 85.8355 121.461 86.1723C120.759 86.5092 120.38 87.3513 120.361 88.1723C120.323 89.5829 120.38 90.9724 120.361 92.3829C119.905 92.425 119.469 92.425 119.014 92.3829C118.995 89.8987 118.995 87.3934 119.014 84.9092C119.431 84.867 119.829 84.867 120.247 84.9302C120.304 85.0355 120.399 85.3302 120.436 85.4776ZM127.304 85.3091C128.575 84.2144 130.605 84.4039 131.668 85.7513C132.332 86.6355 132.617 87.7934 132.484 88.9513C130.776 89.0144 129.05 88.9513 127.342 88.9723C127.191 90.3618 128.481 91.4987 129.676 91.2671C130.378 91.246 130.795 90.5724 131.27 90.0881C131.687 90.046 132.028 90.3829 132.37 90.5513C131.687 92.4461 129.429 93.225 127.817 92.2987C125.445 91.0987 125.274 86.9934 127.304 85.3091ZM127.323 87.7092C128.556 87.7723 129.809 87.7723 131.061 87.7092C130.947 86.6776 130.112 85.9407 129.183 86.0249C128.253 85.9618 127.589 86.825 127.323 87.7092ZM135.994 84.7197C136.468 84.5512 136.98 84.6355 137.473 84.7197C137.511 85.2249 137.53 85.7302 137.511 86.2355C137.018 86.2144 136.506 86.0671 136.013 86.1934C135.311 86.5092 134.836 87.2671 134.855 88.1092C134.817 89.5197 134.874 90.9092 134.855 92.3197C134.419 92.3829 133.964 92.3829 133.527 92.3408C133.508 89.8566 133.508 87.3513 133.527 84.867C133.869 84.8249 134.229 84.8249 134.571 84.8249C134.684 85.0144 134.798 85.2039 134.931 85.3934C135.292 85.1618 135.652 84.9302 135.994 84.7197ZM110.799 85.6249C111.292 85.3302 111.728 84.846 112.316 84.846C112.62 84.8249 112.942 84.846 113.246 84.867C113.265 85.3302 113.265 85.7934 113.265 86.2355C112.677 86.3407 111.975 86.1723 111.501 86.6565C111.178 86.9934 110.875 87.4355 110.875 87.9618C110.818 89.4776 110.912 90.9934 110.837 92.5303C110.419 92.5724 109.983 92.5724 109.546 92.5513C109.509 90.046 109.509 87.5407 109.546 85.0565C109.926 85.0144 110.286 85.0355 110.666 85.0986C110.685 85.2039 110.761 85.4776 110.799 85.6249Z" fill="#060606"/>
<path d="M84.7241 48.7878C87.6391 45.701 91.8937 44.0897 96.06 44.2554C98.5038 44.421 100.948 45.0685 103.038 46.4087C103.907 46.9658 104.775 47.5531 105.452 48.3361C104.79 49.1191 104.024 49.8118 103.318 50.5647C102.582 51.3025 101.875 52.0855 101.11 52.7932C99.9171 51.679 98.4302 50.8357 96.8108 50.6098C95.1325 50.4141 93.3511 50.4894 91.8201 51.2724C90.0976 52.0855 88.6696 53.4106 87.7127 55.0821C87.3888 55.6392 87.168 56.2566 86.903 56.8438C85.1952 55.5639 83.5611 54.1786 81.8681 52.8685C82.56 51.3326 83.5317 49.9473 84.7241 48.7878Z" fill="#EA4335"/>
<path d="M81.8828 52.8534C83.5758 54.1634 85.21 55.5337 86.9177 56.8287C86.6674 58.0785 86.2847 59.3584 86.5202 60.6534C86.5938 61.3611 86.7999 62.0538 86.9177 62.7465C85.5927 63.8156 84.2383 64.8696 82.9134 65.9538C82.5748 66.2249 82.2214 66.4658 81.8387 66.6615C80.9112 64.7944 80.3812 62.7314 80.2929 60.6384C80.2193 59.2681 80.3076 57.8827 80.5726 56.5275C80.8965 55.2777 81.2351 53.9978 81.8828 52.8534Z" fill="#FBBC04"/>
<path d="M95.5153 56.9492C99.6669 56.9492 103.818 56.9492 107.97 56.9492C108.5 56.9492 109.03 56.904 109.56 56.9943C110.473 61.6171 109.486 66.7218 106.483 70.3658C106.159 70.7573 105.835 71.194 105.394 71.45C103.73 70.2002 102.155 68.86 100.506 67.5951C101.949 66.4959 103.053 64.8245 103.244 62.9723C100.653 62.9272 98.0622 62.9874 95.4711 62.9422C95.3975 61.3762 95.4711 59.7951 95.4417 58.2291C95.4564 57.8075 95.3828 57.3708 95.5153 56.9492Z" fill="#4284F4"/>
<path d="M82.9134 65.9689C84.2384 64.8848 85.5928 63.8307 86.9177 62.7616C87.2416 63.379 87.4477 64.0716 87.8305 64.6589C89.0377 66.6767 90.9515 68.1674 93.1892 68.7998C94.7497 69.1462 96.3691 69.1462 97.9149 68.7697C98.8277 68.5288 99.6668 68.0771 100.491 67.6103C102.14 68.8751 103.715 70.2303 105.379 71.4651C104.981 71.9921 104.437 72.3535 103.907 72.73C101.433 74.5219 98.3713 75.2296 95.3828 75.3049C92.3648 75.2446 89.3468 74.3713 86.8588 72.5944C84.7095 71.0886 82.9723 69.0558 81.824 66.6767C82.2215 66.4809 82.5748 66.24 82.9134 65.9689Z" fill="#34A853"/>
<path d="M52.6497 83.0266C53.9931 81.7576 55.9337 81.6685 57.501 82.3587C58.0608 82.6704 58.6952 83.0489 58.9751 83.7835C58.7139 84.1398 58.434 84.4737 58.1168 84.7631C57.669 84.3179 57.2025 83.8503 56.6427 83.6277C55.2433 83.1379 53.5826 83.65 52.7243 85.0971C51.9966 86.0989 51.9593 87.5238 52.1273 88.7928C52.4445 90.752 54.1238 92.1991 55.7844 92.021C57.2771 92.0432 58.7512 90.5516 58.7512 88.7037C57.669 88.6147 56.5867 88.7037 55.5045 88.6592C55.3552 88.2585 55.3366 87.7909 55.4299 87.3679C56.9413 87.1898 58.49 87.3012 60.0013 87.3012C60.1693 88.9264 59.964 90.7297 58.9191 91.9096C57.2398 94.0469 54.1984 94.0692 52.3885 92.1991C50.3173 90.1063 50.0748 86.3884 51.8474 83.9171C52.0899 83.6054 52.3512 83.2938 52.6497 83.0266ZM83.9035 82.2474C84.3326 82.1583 84.7804 82.1361 85.2096 82.1806C85.2656 85.8318 85.2283 89.4829 85.2283 93.1341C84.7991 93.3122 84.3513 93.2232 83.9035 93.2009C83.8848 89.5497 83.9035 85.8986 83.9035 82.2474ZM63.4719 85.1416C64.4235 84.8967 65.4871 85.0303 66.2894 85.7205C67.8568 86.9449 68.2859 89.7056 67.297 91.5757C66.7186 92.8892 65.4311 93.5794 64.2183 93.5794C63.3973 93.4681 62.5576 93.1341 61.9792 92.4217C60.9903 91.3085 60.6731 89.483 61.0649 87.9691C61.3448 86.5665 62.3524 85.5201 63.4719 85.1416ZM63.6398 86.6555C62.8562 87.0117 62.3337 87.88 62.2964 88.8596C62.2218 89.8169 62.371 90.9301 63.0614 91.5312C64.125 92.6443 66.0282 91.9319 66.364 90.3067C66.532 89.2826 66.5506 87.9913 65.8229 87.2344C65.3191 86.4997 64.3862 86.3661 63.6398 86.6555ZM70.9728 85.1639C71.8498 84.9412 72.82 84.9635 73.6037 85.5424C75.451 86.6778 75.9361 89.8392 74.7606 91.7983C74.1635 92.956 73.0066 93.5794 71.8871 93.6017C70.8235 93.5126 69.7227 92.956 69.1256 91.8651C68.5285 90.9301 68.4352 89.7056 68.5285 88.5702C68.6591 86.9672 69.7227 85.6314 70.9728 85.1639ZM71.2713 86.6333C69.5174 87.2789 69.2935 90.4848 70.7489 91.6648C71.4579 92.2436 72.5588 92.2436 73.2119 91.5312C74.2754 90.5293 74.3314 88.4588 73.4545 87.2789C72.9133 86.5442 72.0177 86.3661 71.2713 86.6333ZM76.1787 87.9468C76.5332 86.277 77.858 84.8522 79.3507 85.0303C80.0784 84.9635 80.6568 85.5423 81.2539 85.9431C81.3099 85.7205 81.3659 85.4978 81.4218 85.2752C81.8137 85.2529 82.2055 85.2529 82.5787 85.2752C82.616 87.8132 82.5787 90.3735 82.5973 92.9115C82.616 94.1582 82.1869 95.5163 81.2726 96.2065C80.4702 96.8298 79.4626 96.8298 78.5483 96.7185C77.5221 96.5404 76.6638 95.6944 76.3466 94.5145C76.6638 94.225 77.0183 93.8688 77.4288 93.9579C77.7833 94.4031 78.0819 94.9152 78.5483 95.2046C79.388 95.6944 80.4889 95.2714 81.03 94.3809C81.3285 93.8466 81.3099 93.1787 81.3099 92.5775C80.6195 93.1119 79.8358 93.6907 78.9775 93.5794C78.1192 93.4235 77.2049 92.9783 76.7198 92.0655C76.0107 90.8855 75.8801 89.3271 76.1787 87.9468ZM78.5857 86.6778C77.1303 87.4793 76.9437 90.0618 77.9699 91.3976C78.5857 92.1323 79.5186 92.2881 80.2836 91.7983C81.7204 90.752 81.739 87.88 80.3396 86.7891C79.7985 86.4551 79.1641 86.4106 78.5857 86.6778ZM87.2807 86.1435C87.8965 85.3642 88.7548 84.9635 89.6504 85.0303C90.7513 84.9635 91.7776 85.8095 92.3373 86.9004C92.7105 87.7019 92.7478 88.6369 92.7292 89.5497C91.0685 89.7946 89.3706 89.5497 87.6912 89.6611C87.542 91.175 88.9041 92.3994 90.0983 92.0432C90.7886 91.9542 91.1618 91.2417 91.5723 90.6852C91.9268 90.8633 92.2627 91.0636 92.5985 91.2417C92.3746 92.3994 91.3857 93.1787 90.4528 93.4458C89.4638 93.802 88.4003 93.4236 87.5793 92.7557C86.6837 91.9764 86.3478 90.5961 86.2358 89.3494C86.3105 88.2139 86.553 86.9672 87.2807 86.1435ZM88.7175 86.7C88.1391 86.9449 87.8778 87.6796 87.7099 88.3253C88.9227 88.3475 90.1356 88.3475 91.3484 88.3253C91.2178 87.8577 91.1245 87.3234 90.7886 86.9895C90.2289 86.4329 89.3892 86.4106 88.7175 86.7Z" fill="#060606"/>
</svg>
