<svg width="141" height="104" viewBox="0 0 141 104" fill="none" xmlns="http://www.w3.org/2000/svg">
<path d="M70.6486 88.3262H103.083C104.211 88.3262 105.339 88.3262 106.468 88.3262C106.782 88.3262 107.086 88.2034 107.325 87.9803C107.769 87.5897 107.91 87.0988 107.91 86.5297C107.91 63.6557 107.91 40.7817 107.91 17.9077C107.91 17.4502 107.845 16.9927 107.834 16.5352C107.824 16.234 107.672 15.9996 107.498 15.7876C107.14 15.3636 106.663 15.2521 106.131 15.2521C82.4943 15.2521 58.8572 15.2521 35.2202 15.2521C35.0683 15.2409 34.9273 15.2521 34.7863 15.2744C34.4608 15.3302 34.1571 15.4864 33.9184 15.7207C33.5388 16.1001 33.4411 16.591 33.4411 17.1043C33.4411 30.5832 33.4411 44.0733 33.4411 57.5522C33.4411 67.2151 33.4411 76.878 33.4411 86.5409C33.4303 86.8198 33.4628 87.0876 33.5605 87.3442C33.8425 87.9803 34.3198 88.3485 35.0574 88.3485C46.9139 88.3373 58.7813 88.3262 70.6486 88.3262Z" fill="white" stroke="#5F6368" stroke-width="4" stroke-miterlimit="10"/>
<path d="M72.1456 62.484C72.8182 62.4617 73.4908 62.4617 74.1633 62.484C74.684 62.484 75.1613 62.8188 75.4542 63.2539C75.6928 63.6333 75.7037 64.1019 75.6386 64.5371C75.5735 64.9723 75.2589 65.3182 74.9226 65.5636C74.3152 65.9542 73.5884 65.7756 72.9158 65.8203C72.8507 66.5455 72.9158 67.282 72.8941 68.0073C72.6446 68.0296 72.3951 68.0296 72.1456 68.0073C72.1348 66.1662 72.1239 64.3251 72.1456 62.484ZM72.905 63.2539C72.8616 63.8453 72.8507 64.4478 72.8941 65.0504C73.3606 65.0504 73.827 65.0838 74.2935 65.0281C74.9226 64.8049 75.0854 63.8676 74.5755 63.4325C74.0874 63.1089 73.4582 63.2986 72.905 63.2539ZM83.3621 63.9792C83.373 63.6333 83.3296 63.2874 83.4055 62.9527C83.6442 62.9527 83.8828 62.9527 84.1323 62.9638C84.154 63.2986 84.1323 63.6333 84.154 63.968C84.4035 64.1019 84.7289 64.0015 85.0218 64.0461C85.0327 64.2805 85.0327 64.5148 85.0218 64.7603C84.7289 64.7714 84.436 64.7826 84.154 64.8161C84.154 65.5302 84.1432 66.2443 84.154 66.9696C84.1432 67.1592 84.2299 67.3712 84.4252 67.4159C84.6422 67.4159 84.8591 67.4159 85.0761 67.3936C85.0978 67.639 85.0761 67.8845 85.0218 68.1188C84.6747 68.1412 84.3167 68.1858 83.9696 68.0854C83.6984 67.918 83.4164 67.6614 83.4055 67.3155C83.3296 66.4898 83.4272 65.6641 83.3513 64.8384C83.1343 64.8049 82.9065 64.7714 82.6896 64.7379C82.6896 64.5148 82.6896 64.2916 82.7004 64.0685C82.9174 64.0238 83.156 64.0461 83.3621 63.9792ZM76.2894 64.7491C76.8861 63.5998 78.7844 63.5998 79.3919 64.7491C79.5654 65.1285 79.5221 65.5636 79.5329 65.9653C79.5221 66.646 79.5438 67.3266 79.5221 68.0073C79.3268 68.0184 79.1315 68.0184 78.9363 68.0073C78.8712 67.918 78.817 67.8176 78.7519 67.7283C78.3071 68.0184 77.7864 68.3197 77.2549 68.13C76.4739 68.0073 75.8772 67.0923 76.2244 66.3224C76.4413 65.731 77.0705 65.4632 77.6454 65.4186C78.0468 65.3851 78.4373 65.5302 78.8386 65.5525C78.7953 65.0727 78.4481 64.6041 77.9383 64.6375C77.4935 64.5594 77.1247 64.8384 76.8318 65.1508C76.6149 65.0504 76.4413 64.9053 76.2894 64.7491ZM76.9078 66.858C76.9403 67.2597 77.3634 67.4828 77.7213 67.4605C78.2854 67.4159 78.741 66.9472 78.7736 66.367C78.4698 66.0881 78.0142 66.0658 77.6346 66.0992C77.2549 66.1327 76.8644 66.434 76.9078 66.858ZM86.4212 64.3474C86.7683 64.1354 87.1263 63.8565 87.571 63.9011C88.3195 63.8341 88.9921 64.5148 88.9921 65.2624C89.0029 66.1773 88.9921 67.0811 88.9921 67.9961C88.7426 68.0184 88.4931 68.0296 88.2436 68.0073C88.211 67.1035 88.287 66.1996 88.2002 65.2958C88.1568 64.7156 87.4625 64.5371 87.0069 64.7156C86.6056 64.8942 86.3886 65.3405 86.3778 65.7756C86.3561 66.5232 86.3886 67.2597 86.3778 68.0073C86.1174 68.0296 85.8679 68.0296 85.6076 68.0073C85.5967 66.6906 85.5967 65.3628 85.6076 64.0461C85.8462 64.0238 86.074 64.0238 86.3127 64.0573C86.3452 64.1131 86.3995 64.2693 86.4212 64.3474ZM90.348 64.2581C91.0748 63.6779 92.2355 63.7784 92.843 64.4925C93.2227 64.9611 93.3854 65.5748 93.3094 66.1885C92.3331 66.222 91.346 66.1885 90.3697 66.1997C90.2829 66.9361 91.0206 67.5386 91.704 67.4159C92.1054 67.4047 92.344 67.0477 92.6152 66.791C92.8538 66.7687 93.0491 66.9472 93.2444 67.0365C92.8538 68.0407 91.563 68.4536 90.6409 67.9626C89.285 67.3266 89.1873 65.1508 90.348 64.2581ZM90.3589 65.5302C91.064 65.5636 91.7799 65.5636 92.4959 65.5302C92.4308 64.9834 91.9535 64.5929 91.4219 64.6375C90.8904 64.6041 90.5107 65.0615 90.3589 65.5302ZM95.3163 63.9457C95.5875 63.8565 95.8803 63.9011 96.1624 63.9457C96.1841 64.2135 96.1949 64.4813 96.1841 64.7491C95.902 64.7379 95.6091 64.6598 95.3271 64.7268C94.9257 64.8942 94.6546 65.2958 94.6654 65.7422C94.6437 66.4898 94.6762 67.2262 94.6654 67.9738C94.4159 68.0073 94.1556 68.0073 93.9061 67.9849C93.8952 66.6683 93.8952 65.3405 93.9061 64.0238C94.1013 64.0015 94.3074 64.0015 94.5027 64.0015C94.5678 64.1019 94.6329 64.2024 94.7088 64.3028C94.9149 64.18 95.121 64.0573 95.3163 63.9457ZM80.9106 64.4255C81.1926 64.2693 81.4421 64.0127 81.7784 64.0127C81.9519 64.0015 82.1363 64.0127 82.3099 64.0238C82.3208 64.2693 82.3208 64.5148 82.3208 64.7491C81.9845 64.8049 81.5831 64.7156 81.3119 64.9723C81.1275 65.1508 80.9539 65.3851 80.9539 65.6641C80.9214 66.4674 80.9756 67.2708 80.9323 68.0854C80.6936 68.1077 80.4441 68.1077 80.1946 68.0965C80.1729 66.7687 80.1729 65.4409 80.1946 64.1243C80.4116 64.1019 80.6177 64.1131 80.8346 64.1466C80.8455 64.2024 80.8889 64.3474 80.9106 64.4255Z" fill="#606469" stroke="#5F6368" stroke-width="0.25" stroke-miterlimit="10"/>
<path d="M63.0987 36.4412C65.2465 34.1538 68.3815 32.9598 71.4514 33.0826C73.2521 33.2053 75.0528 33.6851 76.5932 34.6782C77.2332 35.091 77.8732 35.5262 78.3722 36.1064C77.884 36.6866 77.3199 37.1999 76.7993 37.7578C76.2569 38.3045 75.7362 38.8848 75.1721 39.4092C74.2934 38.5835 73.1978 37.9586 72.0046 37.7913C70.768 37.6462 69.4554 37.702 68.3272 38.2822C67.0581 38.8848 66.0058 39.8667 65.3007 41.1052C65.0621 41.5181 64.8994 41.9755 64.7041 42.4107C63.4458 41.4623 62.2417 40.4357 60.9942 39.465C61.504 38.3269 62.22 37.3003 63.0987 36.4412Z" fill="#EA4335"/>
<path d="M61.0051 39.4539C62.2526 40.4246 63.4567 41.44 64.715 42.3996C64.5306 43.3257 64.2486 44.2741 64.4221 45.2337C64.4764 45.7582 64.6282 46.2714 64.715 46.7847C63.7387 47.5769 62.7407 48.358 61.7644 49.1614C61.5149 49.3622 61.2546 49.5407 60.9726 49.6858C60.2892 48.3022 59.8986 46.7735 59.8336 45.2226C59.7793 44.2072 59.8444 43.1806 60.0397 42.1764C60.2783 41.2503 60.5278 40.3019 61.0051 39.4539Z" fill="#FBBC04"/>
<path d="M71.05 42.4888C74.1091 42.4888 77.1681 42.4888 80.2271 42.4888C80.6177 42.4888 81.0082 42.4554 81.3987 42.5223C82.0713 45.9478 81.3445 49.7304 79.1315 52.4307C78.8929 52.7208 78.6542 53.0444 78.3288 53.234C77.103 52.3079 75.9423 51.3149 74.7274 50.3776C75.7905 49.563 76.604 48.3245 76.745 46.9521C74.8359 46.9186 72.9267 46.9632 71.0175 46.9297C70.9632 45.7693 71.0175 44.5977 70.9958 43.4373C71.0066 43.1248 70.9524 42.8013 71.05 42.4888Z" fill="#4284F4"/>
<path d="M61.7644 49.1724C62.7407 48.3691 63.7387 47.588 64.715 46.7958C64.9536 47.2533 65.1055 47.7665 65.3875 48.2017C66.277 49.6969 67.6872 50.8015 69.3361 51.2702C70.4859 51.5268 71.6792 51.5268 72.8182 51.2478C73.4907 51.0693 74.109 50.7346 74.7165 50.3887C75.9314 51.3259 77.0922 52.3302 78.3179 53.2451C78.0251 53.6357 77.6237 53.9035 77.2332 54.1824C75.4108 55.5102 73.1545 56.0346 70.9524 56.0904C68.7286 56.0458 66.5048 55.3986 64.6716 54.082C63.0878 52.9662 61.8078 51.4598 60.9617 49.6969C61.2546 49.5518 61.5149 49.3733 61.7644 49.1724Z" fill="#34A853"/>
<path d="M46.6644 62.908C47.4455 62.272 48.5736 62.2274 49.4848 62.5733C49.8103 62.7295 50.1791 62.9192 50.3418 63.2874C50.1899 63.4659 50.0272 63.6333 49.8428 63.7784C49.5825 63.5552 49.3113 63.3209 48.9858 63.2093C48.1723 62.9638 47.2068 63.2205 46.7078 63.9457C46.2848 64.4478 46.2631 65.162 46.3607 65.798C46.5451 66.7799 47.5214 67.5051 48.4868 67.4159C49.3547 67.427 50.2116 66.6795 50.2116 65.7533C49.5825 65.7087 48.9533 65.7533 48.3241 65.731C48.2374 65.5302 48.2265 65.2959 48.2807 65.0839C49.1594 64.9946 50.0598 65.0504 50.9384 65.0504C51.036 65.8649 50.9167 66.7687 50.3093 67.3601C49.333 68.4313 47.5648 68.4424 46.5126 67.5052C45.3085 66.4563 45.1675 64.5929 46.198 63.3544C46.339 63.1981 46.4909 63.0419 46.6644 62.908ZM64.8343 62.5175C65.0838 62.4729 65.3441 62.4617 65.5936 62.484C65.6262 64.314 65.6045 66.1439 65.6045 67.9738C65.355 68.0631 65.0946 68.0184 64.8343 68.0073C64.8234 66.1773 64.8343 64.3474 64.8343 62.5175ZM52.9561 63.9681C53.5093 63.8453 54.1276 63.9123 54.5941 64.2582C55.5053 64.8719 55.7548 66.2554 55.1799 67.1927C54.8436 67.851 54.0951 68.1969 53.39 68.1969C52.9127 68.1412 52.4246 67.9738 52.0883 67.6167C51.5133 67.0588 51.3289 66.1439 51.5567 65.3851C51.7195 64.6822 52.3052 64.1577 52.9561 63.9681ZM53.0537 64.7268C52.5981 64.9053 52.2944 65.3405 52.2727 65.8314C52.2293 66.3112 52.3161 66.8691 52.7174 67.1704C53.3358 67.7283 54.4422 67.3713 54.6375 66.5567C54.7351 66.0434 54.746 65.3963 54.3229 65.0169C54.03 64.6487 53.4876 64.5817 53.0537 64.7268ZM57.3169 63.9792C57.8267 63.8676 58.3908 63.8788 58.8464 64.1689C59.9203 64.738 60.2023 66.3224 59.5189 67.3043C59.1718 67.8845 58.4992 68.197 57.8484 68.2081C57.2301 68.1635 56.5901 67.8845 56.2429 67.3378C55.8958 66.8691 55.8416 66.2554 55.8958 65.6864C55.9717 64.883 56.5901 64.2135 57.3169 63.9792ZM57.4904 64.7156C56.4707 65.0392 56.3406 66.646 57.1867 67.2374C57.5989 67.5275 58.2389 67.5275 58.6186 67.1704C59.2369 66.6683 59.2694 65.6306 58.7596 65.0392C58.445 64.671 57.9243 64.5817 57.4904 64.7156ZM60.3433 65.374C60.5495 64.5371 61.3196 63.823 62.1874 63.9123C62.6105 63.8788 62.9468 64.1689 63.2939 64.3697C63.3265 64.2582 63.359 64.1466 63.3915 64.035C63.6193 64.0238 63.8471 64.0238 64.0641 64.035C64.0858 65.307 64.0641 66.5902 64.0749 67.8622C64.0858 68.4871 63.8363 69.1677 63.3048 69.5136C62.8383 69.826 62.2525 69.826 61.721 69.7702C61.1244 69.681 60.6254 69.257 60.441 68.6656C60.6254 68.5205 60.8315 68.342 61.0701 68.3866C61.2762 68.6098 61.4498 68.8664 61.721 69.0115C62.2091 69.257 62.8492 69.045 63.1637 68.5986C63.3373 68.3308 63.3265 67.9961 63.3265 67.6948C62.9251 67.9626 62.4695 68.2527 61.9705 68.1969C61.4715 68.1188 60.94 67.8957 60.6579 67.4382C60.2457 66.8468 60.1698 66.0658 60.3433 65.374ZM61.7427 64.738C60.8966 65.1396 60.7881 66.434 61.3847 67.1035C61.7427 67.4717 62.2851 67.5498 62.7298 67.3043C63.5651 66.7799 63.576 65.3405 62.7624 64.7937C62.4478 64.6264 62.079 64.6041 61.7427 64.738ZM66.7977 64.4702C67.1557 64.0796 67.6547 63.8788 68.1754 63.9123C68.8154 63.8788 69.412 64.3028 69.7374 64.8495C69.9544 65.2512 69.9761 65.7199 69.9652 66.1773C68.9998 66.3001 68.0126 66.1773 67.0364 66.2331C66.9496 66.9919 67.7415 67.6056 68.4357 67.427C68.8371 67.3824 69.054 67.0254 69.2927 66.7464C69.4988 66.8357 69.694 66.9361 69.8893 67.0254C69.7591 67.6056 69.1842 67.9961 68.6418 68.13C68.0669 68.3085 67.4486 68.1188 66.9713 67.7841C66.4506 67.3936 66.2553 66.7018 66.1902 66.0769C66.2336 65.5079 66.3746 64.883 66.7977 64.4702ZM67.633 64.7491C67.2967 64.8719 67.1448 65.2401 67.0472 65.5637C67.7523 65.5748 68.4574 65.5748 69.1625 65.5637C69.0866 65.3293 69.0323 65.0615 68.8371 64.8942C68.5116 64.6152 68.0235 64.6041 67.633 64.7491Z" fill="#606469" stroke="#5F6368" stroke-miterlimit="10"/>
</svg>
