<svg width="174" height="65" viewBox="0 0 174 65" fill="none" xmlns="http://www.w3.org/2000/svg">
<path d="M21.8899 46.0645L41.6497 57.2977V47.2251L21.8899 35.9781L2.13004 47.2251V57.2977L21.8899 46.0645Z" fill="white"/>
<path d="M21.8899 18.6656L2.13004 7.41858V17.5049L21.8899 28.7381L41.6497 17.5049V7.41858L21.8899 18.6656Z" fill="white"/>
<path d="M21.8899 46.0645L2.13004 57.2976L9.46451 62.7277L21.8899 55.6534L34.3062 62.7277L41.6497 57.2976L21.8899 46.0645Z" fill="#6BBFCD"/>
<path d="M21.8899 18.6655L41.6497 7.41855L34.3062 2.00232L21.8899 9.06277L9.46451 2.00232L2.13004 7.41855L21.8899 18.6655Z" fill="#6BBFCD"/>
<path d="M89.0174 24.6759C89.1256 25.2976 89.3328 25.8365 89.6211 26.3201C90.1347 27.1353 90.9547 27.9229 92.4774 27.9229C94.703 27.9229 95.595 26.555 95.595 25.1871C95.595 23.004 93.4325 22.4928 91.252 21.7743C89.0715 21.0558 86.909 19.6603 86.909 15.7916C86.909 12.5446 88.8012 9.64307 92.3693 9.64307C94.8652 9.64307 96.3159 11.1767 97.1358 12.7242C97.6224 13.65 97.9648 14.6724 98.163 15.8054H95.4869C95.3788 15.3633 95.1986 14.9211 94.9283 14.5343C94.4868 13.8849 93.7028 13.2355 92.3693 13.2355C90.342 13.2355 89.5851 14.2579 89.5851 15.6258C89.5851 17.1595 90.8105 17.878 92.3243 18.3615C94.8832 19.1491 98.2711 20.1025 98.2711 25.0213C98.2711 28.4341 96.2888 31.5153 92.4774 31.5153C89.6482 31.5153 88.0623 29.8434 87.2154 28.1025C86.7288 27.1077 86.3864 25.947 86.2332 24.6897H89.0174V24.6759Z" fill="white"/>
<path d="M98.938 10.3339H111.084V14.0921H106.291V30.8382H103.732V14.0921H98.938V10.3339Z" fill="white"/>
<path d="M120.221 22.1197L118.77 14.0921H116.319L114.868 22.1197H120.221ZM114.517 10.3339H120.581L124.347 30.8382H121.788L120.896 25.8779H114.202L113.31 30.8382H110.751L114.517 10.3339Z" fill="white"/>
<path d="M124.005 10.3339H136.151V14.0921H131.366V30.8382H128.799V14.0921H124.005V10.3339Z" fill="white"/>
<path d="M140.494 10.3339H137.935V30.8382H140.494V10.3339Z" fill="white"/>
<path d="M150.414 27.7571C153.199 27.7571 155.208 24.6759 155.208 20.5861C155.208 16.4963 153.199 13.4151 150.414 13.4151C147.63 13.4151 145.621 16.4963 145.621 20.5861C145.621 24.6759 147.63 27.7571 150.414 27.7571ZM150.414 9.64307C154.757 9.64307 157.884 14.4237 157.884 20.5861C157.884 26.7484 154.766 31.5291 150.414 31.5291C146.071 31.5291 142.945 26.7484 142.945 20.5861C142.945 14.4237 146.071 9.64307 150.414 9.64307Z" fill="white"/>
<path d="M160.335 10.3339H163.786L169.913 25.7121H170.138L169.913 22.9763V10.3339H172.481V30.8382H169.03L162.894 15.4599H162.678L162.894 18.1819V30.8382H160.335V10.3339Z" fill="white"/>
<path d="M59.0848 19.9919H56.1024V15.0317H59.0848C60.1301 15.0317 60.914 16.0956 60.914 17.5049C60.914 18.9142 60.121 19.9919 59.0848 19.9919ZM62.7701 23.7916C63.2116 23.46 63.6261 22.9902 64.0045 22.3823C64.8425 21.0558 65.266 19.4116 65.266 17.5049C65.266 12.8762 62.8963 9.64307 59.5083 9.64307H51.8495V31.5153H56.1024V25.2147H58.6974L61.0131 31.5153H65.293L62.5268 23.9712L62.7701 23.7916Z" fill="white"/>
<path d="M71.6994 25.9609V15.1837H73.3123C75.5468 15.1837 76.9344 17.2424 76.9344 20.5723C76.9344 23.8883 75.5468 25.9609 73.3123 25.9609H71.6994ZM81.3946 20.5861C81.3946 14.2441 78.0427 9.64307 73.4204 9.64307H67.4465V31.5153H73.4204C78.0427 31.5153 81.3946 26.9142 81.3946 20.5861Z" fill="white"/>
<path d="M51.8495 38.7001H56.7692C59.3461 38.7001 61.0131 41.2562 61.0131 44.3926C61.0131 47.5291 59.3461 50.0852 56.7692 50.0852H54.1201V54.9626H51.8495V38.7001ZM56.6971 46.8244C57.9856 46.8244 58.6704 45.7743 58.6704 44.3788C58.6704 42.9833 57.9856 41.9332 56.6971 41.9332H54.1201V46.8106H56.6971V46.8244Z" fill="white"/>
<path d="M64.5362 38.7001H69.3117L72.114 54.9626H69.7622L69.1585 51.3564H64.6894L64.0857 54.9626H61.7339L64.5362 38.7001ZM68.6269 48.1094L67.5637 41.947H66.2752L65.212 48.1094H68.6269Z" fill="white"/>
<path d="M73.6727 38.7001H78.6735C81.2685 38.7001 82.8363 41.1457 82.8363 44.1578C82.8363 46.6863 81.7731 48.3581 80.4125 49.1595L82.8363 54.9626H80.2593L78.0698 49.6154H75.9524V54.9626H73.6817V38.7001H73.6727ZM78.5924 46.3685C79.8809 46.3685 80.4846 45.4565 80.4846 44.1578C80.4846 42.859 79.8809 41.947 78.5924 41.947H75.9434V46.3685H78.5924Z" fill="white"/>
<path d="M84.0167 38.7001H93.1082V41.947H89.7023V54.9626H87.4317V41.947H84.0167V38.7001Z" fill="white"/>
<path d="M94.7391 38.7001H97.6946L101.857 50.1958H102.011L101.857 48.2199V38.7001H104.128V54.9626H101.173L97.0098 43.4669H96.8566L97.0098 45.4427V54.9626H94.7391V38.7001Z" fill="white"/>
<path d="M106.606 38.7001H114.562V41.9471H108.876V45.194H113.418V48.2199H108.876V51.7018H114.562V54.9488H106.606V38.7001Z" fill="white"/>
<path d="M116.643 38.7001H121.644C124.239 38.7001 125.807 41.1457 125.807 44.1578C125.807 46.6863 124.744 48.3581 123.383 49.1595L125.807 54.9626H123.23L121.031 49.6154H118.914V54.9626H116.643V38.7001ZM121.572 46.3685C122.861 46.3685 123.464 45.4565 123.464 44.1578C123.464 42.859 122.861 41.947 121.572 41.947H118.923V46.3685H121.572Z" fill="white"/>
<path d="M129.564 49.8503C129.655 50.32 129.808 50.7345 130.006 51.08C130.357 51.7017 130.961 52.282 131.988 52.282C133.43 52.282 133.962 51.4668 133.962 50.4306C133.962 48.9936 132.403 48.5238 130.826 47.9021C129.231 47.3218 127.672 46.1335 127.672 43.232C127.672 40.5653 129.186 38.2302 131.763 38.2302C133.736 38.2302 134.827 39.5014 135.43 40.7449C135.782 41.491 136.025 42.32 136.16 43.232H133.808C133.745 42.8865 133.628 42.5826 133.457 42.3062C133.169 41.8364 132.673 41.3805 131.763 41.3805C130.547 41.3805 130.024 42.1957 130.024 43.1214C130.024 44.213 130.907 44.7656 132.024 45.1663C133.844 45.8433 136.313 46.6586 136.313 50.32C136.313 53.042 134.845 55.4323 131.997 55.4323C129.925 55.4323 128.681 54.0644 128.042 52.6413C127.645 51.8261 127.375 50.9003 127.222 49.8503H129.564Z" fill="white"/>
</svg>
