<svg width="135" height="49" viewBox="0 0 135 49" fill="none" xmlns="http://www.w3.org/2000/svg">
<path d="M16.5586 35.0468L31.9781 43.6472V35.9354L16.5586 27.3245L1.13907 35.9354V43.6472L16.5586 35.0468Z" fill="black"/>
<path d="M16.5586 14.0696L1.13907 5.45862V13.181L16.5586 21.7814L31.9781 13.181V5.45862L16.5586 14.0696Z" fill="black"/>
<path d="M16.5586 35.0469L1.13907 43.6473L6.86251 47.8046L16.5586 42.3884L26.2477 47.8046L31.9781 43.6473L16.5586 35.0469Z" fill="#6BBFCD"/>
<path d="M16.5586 14.0695L31.9781 5.45857L26.2477 1.31177L16.5586 6.71742L6.86251 1.31177L1.13907 5.45857L16.5586 14.0695Z" fill="#6BBFCD"/>
<path d="M68.9414 18.6712C69.0258 19.1473 69.1875 19.5598 69.4125 19.9301C69.8133 20.5542 70.4531 21.1572 71.6414 21.1572C73.3781 21.1572 74.0742 20.1099 74.0742 19.0626C74.0742 17.3912 72.3867 16.9998 70.6851 16.4497C68.9836 15.8997 67.2961 14.8312 67.2961 11.8692C67.2961 9.38325 68.7726 7.16174 71.557 7.16174C73.5047 7.16174 74.6367 8.33597 75.2765 9.52077C75.6562 10.2295 75.9234 11.0123 76.0781 11.8798H73.9898C73.9055 11.5413 73.7648 11.2028 73.5539 10.9066C73.2094 10.4094 72.5976 9.91217 71.557 9.91217C69.975 9.91217 69.3844 10.695 69.3844 11.7423C69.3844 12.9165 70.3406 13.4666 71.5219 13.8368C73.5187 14.4398 76.1625 15.1697 76.1625 18.9357C76.1625 21.5486 74.6156 23.9076 71.6414 23.9076C69.4336 23.9076 68.1961 22.6276 67.5351 21.2947C67.1555 20.5331 66.8883 19.6445 66.7687 18.6818H68.9414V18.6712Z" fill="black"/>
<path d="M76.6829 7.69067H86.161V10.568H82.4204V23.3893H80.4235V10.568H76.6829V7.69067Z" fill="black"/>
<path d="M93.2906 16.7142L92.1586 10.568H90.2461L89.1141 16.7142H93.2906ZM88.8399 7.69067H93.5719L96.5109 23.3893H94.5141L93.818 19.5916H88.5938L87.8977 23.3893H85.9008L88.8399 7.69067Z" fill="black"/>
<path d="M96.2438 7.69067H105.722V10.568H101.988V23.3893H99.9844V10.568H96.2438V7.69067Z" fill="black"/>
<path d="M109.111 7.69067H107.114V23.3893H109.111V7.69067Z" fill="black"/>
<path d="M116.852 21.0303C119.025 21.0303 120.593 18.6712 120.593 15.54C120.593 12.4087 119.025 10.0497 116.852 10.0497C114.68 10.0497 113.112 12.4087 113.112 15.54C113.112 18.6712 114.68 21.0303 116.852 21.0303ZM116.852 7.16174C120.241 7.16174 122.681 10.8219 122.681 15.54C122.681 20.258 120.248 23.9182 116.852 23.9182C113.463 23.9182 111.023 20.258 111.023 15.54C111.023 10.8219 113.463 7.16174 116.852 7.16174Z" fill="black"/>
<path d="M124.594 7.69067H127.287L132.068 19.4646H132.244L132.068 17.3701V7.69067H134.072V23.3893H131.379L126.591 11.6153H126.422L126.591 13.6993V23.3893H124.594V7.69067Z" fill="black"/>
<path d="M45.5836 15.0851H43.2562V11.2874H45.5836C46.3992 11.2874 47.0109 12.1019 47.0109 13.181C47.0109 14.26 46.3922 15.0851 45.5836 15.0851ZM48.4593 17.9942C48.8039 17.7403 49.1273 17.3807 49.4226 16.9152C50.0765 15.8997 50.407 14.6408 50.407 13.181C50.407 9.63713 48.5578 7.16174 45.914 7.16174H39.9375V23.9076H43.2562V19.0838H45.2812L47.0882 23.9076H50.4281L48.2695 18.1317L48.4593 17.9942Z" fill="black"/>
<path d="M55.4273 19.6551V11.4038H56.6859C58.4296 11.4038 59.5125 12.98 59.5125 15.5294C59.5125 18.0683 58.4296 19.6551 56.6859 19.6551H55.4273ZM62.9929 15.54C62.9929 10.6844 60.3773 7.16174 56.7703 7.16174H52.1086V23.9076H56.7703C60.3773 23.9076 62.9929 20.385 62.9929 15.54Z" fill="black"/>
<path d="M39.9375 29.4084H43.7765C45.7875 29.4084 47.0882 31.3655 47.0882 33.7668C47.0882 36.1682 45.7875 38.1252 43.7765 38.1252H41.7093V41.8594H39.9375V29.4084ZM43.7203 35.6286C44.7257 35.6286 45.2601 34.8247 45.2601 33.7562C45.2601 32.6878 44.7257 31.8838 43.7203 31.8838H41.7093V35.6181H43.7203V35.6286Z" fill="black"/>
<path d="M49.8375 29.4084H53.5641L55.7508 41.8594H53.9157L53.4446 39.0984H49.9571L49.486 41.8594H47.6508L49.8375 29.4084ZM53.0297 36.6125L52.2 31.8944H51.1946L50.3649 36.6125H53.0297Z" fill="black"/>
<path d="M56.9672 29.4084H60.8695C62.8945 29.4084 64.118 31.2809 64.118 33.587C64.118 35.5229 63.2883 36.8029 62.2266 37.4164L64.118 41.8594H62.107L60.3984 37.7655H58.7461V41.8594H56.9742V29.4084H56.9672ZM60.8062 35.2796C61.8117 35.2796 62.2828 34.5814 62.2828 33.587C62.2828 32.5926 61.8117 31.8944 60.8062 31.8944H58.7391V35.2796H60.8062Z" fill="black"/>
<path d="M65.0391 29.4084H72.1336V31.8944H69.4758V41.8594H67.7039V31.8944H65.0391V29.4084Z" fill="black"/>
<path d="M73.4063 29.4084H75.7125L78.961 38.2098H79.0805L78.961 36.6971V29.4084H80.7328V41.8594H78.4266L75.1782 33.0581H75.0586L75.1782 34.5708V41.8594H73.4063V29.4084Z" fill="black"/>
<path d="M82.6664 29.4084H88.875V31.8944H84.4383V34.3804H87.9821V36.6971H84.4383V39.3629H88.875V41.8489H82.6664V29.4084Z" fill="black"/>
<path d="M90.4992 29.4084H94.4015C96.4265 29.4084 97.65 31.2809 97.65 33.587C97.65 35.5229 96.8203 36.8029 95.7586 37.4164L97.65 41.8594H95.639L93.9234 37.7655H92.2711V41.8594H90.4992V29.4084ZM94.3453 35.2796C95.3507 35.2796 95.8218 34.5814 95.8218 33.587C95.8218 32.5926 95.3507 31.8944 94.3453 31.8944H92.2781V35.2796H94.3453Z" fill="black"/>
<path d="M100.582 37.9454C100.652 38.3051 100.772 38.6224 100.927 38.8869C101.201 39.3629 101.672 39.8072 102.474 39.8072C103.599 39.8072 104.013 39.1831 104.013 38.3897C104.013 37.2895 102.797 36.9299 101.566 36.4538C100.322 36.0095 99.1056 35.0998 99.1056 32.8783C99.1056 30.8366 100.287 29.0488 102.298 29.0488C103.838 29.0488 104.688 30.0221 105.159 30.9741C105.434 31.5454 105.624 32.1801 105.729 32.8783H103.894C103.845 32.6138 103.753 32.3811 103.62 32.1695C103.395 31.8098 103.008 31.4607 102.298 31.4607C101.349 31.4607 100.941 32.0849 100.941 32.7936C100.941 33.6294 101.63 34.0525 102.502 34.3593C103.922 34.8776 105.849 35.5018 105.849 38.3051C105.849 40.3891 104.702 42.2192 102.481 42.2192C100.863 42.2192 99.8931 41.1719 99.3938 40.0823C99.0845 39.4582 98.8735 38.7494 98.754 37.9454H100.582Z" fill="black"/>
</svg>
