<svg width="187" height="132" viewBox="0 0 187 132" fill="none" xmlns="http://www.w3.org/2000/svg">
<path d="M52.6185 63.4358V72.1441H49.8985V60.5268H52.4904V61.4751C53.5902 60.5049 55.0213 60.2378 56.4727 60.2378V62.7344C55.0666 62.7328 53.509 63.0218 52.6185 63.4358Z" fill="white"/>
<path fill-rule="evenodd" clip-rule="evenodd" d="M57.5554 67.0463C57.5554 70.7177 59.4223 72.4519 62.825 72.4519C66.2261 72.4519 68.0931 70.7177 68.0947 67.0463V65.6215C68.0947 61.9688 66.2277 60.2378 62.825 60.2378C59.4223 60.2378 57.5554 61.9704 57.5554 65.6215V67.0463ZM62.825 62.5688C64.6092 62.5688 65.3778 63.3921 65.3778 65.6231V67.0479C65.3778 69.2757 64.6107 70.1209 62.825 70.1209C61.0393 70.1209 60.2722 69.2773 60.2722 67.0479V65.6231C60.2738 63.3936 61.0424 62.5688 62.825 62.5688Z" fill="white"/>
<path d="M75.1265 72.4519C71.766 72.4519 70.21 70.5537 70.21 67.0666V65.6027C70.21 62.0532 71.766 60.2378 75.1265 60.2378C76.9107 60.2378 78.198 60.5049 78.7355 60.6705V62.7344C77.2622 62.6109 76.2467 62.5484 75.5952 62.5484C73.8939 62.5484 72.9393 63.0859 72.9393 65.6027V67.0666C72.9393 69.5632 73.8939 70.1412 75.5952 70.1412C76.2373 70.1412 77.2544 70.0787 78.7355 69.9553V72.0176C77.5575 72.316 76.3436 72.4628 75.1265 72.4519Z" fill="white"/>
<path d="M87.9266 72.141L83.799 66.6386V72.141H81.0806V56.1102H83.799V65.7043L87.9485 60.5253H91.0887L86.558 66.0965L91.2043 72.1426L87.9266 72.141Z" fill="white"/>
<path d="M96.8051 72.4519C93.4446 72.4519 91.8885 70.5537 91.8885 67.0666V65.6027C91.8885 62.0532 93.4446 60.2378 96.8051 60.2378C98.5893 60.2378 99.8766 60.5049 100.414 60.6705V62.7344C98.9408 62.6109 97.9253 62.5484 97.2738 62.5484C95.5725 62.5484 94.6179 63.0859 94.6179 65.6027V67.0666C94.6179 69.5632 95.5725 70.1412 97.2738 70.1412C97.9159 70.1412 98.933 70.0787 100.414 69.9553V72.0176C99.2361 72.316 98.0222 72.4628 96.8051 72.4519Z" fill="white"/>
<path fill-rule="evenodd" clip-rule="evenodd" d="M101.992 67.0463C101.992 70.7177 103.859 72.4519 107.26 72.4519C110.663 72.4519 112.528 70.7177 112.53 67.0463V65.6215C112.53 61.9688 110.661 60.2378 107.26 60.2378C103.859 60.2378 101.992 61.9704 101.992 65.6215V67.0463ZM107.262 62.5688C109.047 62.5688 109.813 63.3921 109.813 65.6231V67.0479C109.813 69.2757 109.044 70.1209 107.262 70.1209C105.478 70.1209 104.71 69.2773 104.71 67.0479V65.6231C104.71 63.3936 105.476 62.5688 107.262 62.5688Z" fill="white"/>
<path d="M122.529 72.1411V64.7764C122.529 63.1047 122.238 62.5282 120.883 62.5282C120.096 62.5282 119.059 62.8173 117.813 63.3125V72.1442H115.103V60.5269H117.717V61.4549C118.982 60.7316 120.248 60.2363 121.554 60.2363C124.853 60.2363 125.292 62.133 125.292 64.7748V72.1411H122.529Z" fill="white"/>
<path d="M132.196 72.4519C129.895 72.4519 128.979 71.5427 128.979 69.1086V62.7141L126.803 62.5266V60.5237H128.981V57.5741H131.719V60.5237H134.56V62.7109H131.719V69.0695C131.719 70.1428 131.802 70.3475 132.797 70.3475C133.396 70.3475 134.227 70.3053 134.561 70.2663V72.1238C133.791 72.3285 132.996 72.4379 132.196 72.4519Z" fill="white"/>
<path fill-rule="evenodd" clip-rule="evenodd" d="M138.65 67.3962V67.19L146.474 67.1884V66.2792C146.474 62.7515 145.102 60.2346 141.204 60.2346C137.719 60.2346 135.934 62.1328 135.934 66.0339V66.7557C135.934 70.8411 137.428 72.4503 141.64 72.4503C143.099 72.4534 144.555 72.2878 145.975 71.955V69.9131C144.44 70.0568 142.987 70.1802 141.763 70.1802C138.9 70.1818 138.65 69.0882 138.65 67.3962ZM141.201 62.4234C143.462 62.4234 143.732 63.8904 143.732 65.2293L143.73 65.4152H138.67V65.2293C138.67 63.9107 139.001 62.4234 141.201 62.4234Z" fill="white"/>
<path d="M156.427 72.1411V64.7764C156.427 63.1047 156.137 62.5282 154.782 62.5282C153.995 62.5282 152.956 62.8173 151.711 63.3125V72.1442H148.998V60.5269H151.614V61.4549C152.879 60.7316 154.145 60.2363 155.451 60.2363C158.75 60.2363 159.188 62.133 159.188 64.7748V72.1411H156.427Z" fill="white"/>
<path d="M166.095 72.4519C163.793 72.4519 162.879 71.5427 162.879 69.1086V62.7141L160.7 62.5266V60.5237H162.879V57.5741H165.62V60.5237H168.46V62.7109H165.62V69.0695C165.62 70.1428 165.703 70.3475 166.698 70.3475C167.296 70.3475 168.129 70.3053 168.462 70.2663V72.1238C167.688 72.3285 166.895 72.4379 166.095 72.4519Z" fill="white"/>
<path d="M36.1862 64.8185H25.0376V67.1791H36.1862V64.8185Z" fill="#266BDE"/>
<path d="M36.1862 62.4594H25.0423V61.3845C25.0423 60.6737 25.6125 60.0972 26.3156 60.0972H34.9176C35.6207 60.0987 36.1909 60.6737 36.1909 61.3845L36.1862 62.4594Z" fill="#266BDE"/>
<path d="M36.1862 69.5507H25.0423V70.624C25.0423 71.3348 25.6125 71.9113 26.3156 71.9113H34.9176C35.6207 71.9097 36.1909 71.3348 36.1909 70.624L36.1862 69.5507Z" fill="#266BDE"/>
<path fill-rule="evenodd" clip-rule="evenodd" d="M27.7092 54.8167H33.6709C39.6217 54.8167 42.587 58.4787 42.587 65.9981C42.587 73.5174 39.6217 77.1514 33.6709 77.1514H27.7092C21.7552 77.1514 18.7931 73.5237 18.7931 65.9981C18.7931 58.4724 21.7552 54.8167 27.7092 54.8167ZM33.2256 74.8095C33.2256 74.8095 30.5385 74.7985 33.2256 74.7985V74.7923C39.6108 74.7923 39.6108 70.9646 39.6108 66.034V66.0028V65.9715C39.6108 61.0409 39.6108 57.1867 33.2256 57.1867H28.1404C21.7552 57.1867 21.7552 61.0331 21.7552 65.959V66.0028V66.034C21.7552 70.9646 21.7552 74.7985 28.1404 74.7985C30.8275 74.7985 28.1404 74.8095 28.1404 74.8095H33.2256Z" fill="#266BDE"/>
</svg>
