<svg width="187" height="132" viewBox="0 0 187 132" fill="none" xmlns="http://www.w3.org/2000/svg">
<path d="M52.6185 63.4358V72.1441H49.8986V60.5268H52.4904V61.4751C53.5903 60.5049 55.0213 60.2378 56.4727 60.2378V62.7344C55.0667 62.7328 53.509 63.0218 52.6185 63.4358Z" fill="black"/>
<path fill-rule="evenodd" clip-rule="evenodd" d="M57.5554 67.0463C57.5554 70.7177 59.4224 72.4519 62.8251 72.4519C66.2262 72.4519 68.0932 70.7177 68.0947 67.0463V65.6215C68.0947 61.9688 66.2278 60.2378 62.8251 60.2378C59.4224 60.2378 57.5554 61.9704 57.5554 65.6215V67.0463ZM62.8251 62.5688C64.6092 62.5688 65.3779 63.3921 65.3779 65.6231V67.0479C65.3779 69.2757 64.6108 70.1209 62.8251 70.1209C61.0394 70.1209 60.2723 69.2773 60.2723 67.0479V65.6231C60.2738 63.3936 61.0425 62.5688 62.8251 62.5688Z" fill="black"/>
<path d="M75.1267 72.4519C71.7661 72.4519 70.2101 70.5537 70.2101 67.0666V65.6027C70.2101 62.0532 71.7661 60.2378 75.1267 60.2378C76.9108 60.2378 78.1981 60.5049 78.7356 60.6705V62.7344C77.2623 62.6109 76.2468 62.5484 75.5953 62.5484C73.894 62.5484 72.9394 63.0859 72.9394 65.6027V67.0666C72.9394 69.5632 73.894 70.1412 75.5953 70.1412C76.2374 70.1412 77.2545 70.0787 78.7356 69.9553V72.0176C77.5576 72.316 76.3437 72.4628 75.1267 72.4519Z" fill="black"/>
<path d="M87.9266 72.141L83.799 66.6386V72.141H81.0806V56.1102H83.799V65.7043L87.9485 60.5253H91.0887L86.5581 66.0965L91.2044 72.1426L87.9266 72.141Z" fill="black"/>
<path d="M96.8052 72.4519C93.4447 72.4519 91.8886 70.5537 91.8886 67.0666V65.6027C91.8886 62.0532 93.4447 60.2378 96.8052 60.2378C98.5893 60.2378 99.8767 60.5049 100.414 60.6705V62.7344C98.9408 62.6109 97.9254 62.5484 97.2739 62.5484C95.5725 62.5484 94.618 63.0859 94.618 65.6027V67.0666C94.618 69.5632 95.5725 70.1412 97.2739 70.1412C97.916 70.1412 98.933 70.0787 100.414 69.9553V72.0176C99.2361 72.316 98.0222 72.4628 96.8052 72.4519Z" fill="black"/>
<path fill-rule="evenodd" clip-rule="evenodd" d="M101.992 67.0463C101.992 70.7177 103.859 72.4519 107.26 72.4519C110.663 72.4519 112.528 70.7177 112.53 67.0463V65.6215C112.53 61.9688 110.661 60.2378 107.26 60.2378C103.859 60.2378 101.992 61.9704 101.992 65.6215V67.0463ZM107.262 62.5688C109.047 62.5688 109.813 63.3921 109.813 65.6231V67.0479C109.813 69.2757 109.044 70.1209 107.262 70.1209C105.478 70.1209 104.71 69.2773 104.71 67.0479V65.6231C104.71 63.3936 105.476 62.5688 107.262 62.5688Z" fill="black"/>
<path d="M122.529 72.1411V64.7764C122.529 63.1047 122.238 62.5282 120.883 62.5282C120.096 62.5282 119.059 62.8173 117.813 63.3125V72.1442H115.103V60.5269H117.717V61.4549C118.982 60.7316 120.248 60.2363 121.554 60.2363C124.853 60.2363 125.292 62.133 125.292 64.7748V72.1411H122.529Z" fill="black"/>
<path d="M132.196 72.4519C129.895 72.4519 128.979 71.5427 128.979 69.1086V62.7141L126.803 62.5266V60.5237H128.981V57.5741H131.719V60.5237H134.56V62.7109H131.719V69.0695C131.719 70.1428 131.802 70.3475 132.797 70.3475C133.396 70.3475 134.227 70.3053 134.561 70.2663V72.1238C133.791 72.3285 132.996 72.4379 132.196 72.4519Z" fill="black"/>
<path fill-rule="evenodd" clip-rule="evenodd" d="M138.65 67.3962V67.19L146.474 67.1884V66.2792C146.474 62.7515 145.102 60.2346 141.204 60.2346C137.719 60.2346 135.935 62.1328 135.935 66.0339V66.7557C135.935 70.8411 137.428 72.4503 141.64 72.4503C143.099 72.4534 144.555 72.2878 145.975 71.955V69.9131C144.44 70.0568 142.987 70.1802 141.764 70.1802C138.9 70.1818 138.65 69.0882 138.65 67.3962ZM141.201 62.4234C143.462 62.4234 143.732 63.8904 143.732 65.2293L143.73 65.4152H138.67V65.2293C138.67 63.9107 139.001 62.4234 141.201 62.4234Z" fill="black"/>
<path d="M156.427 72.1411V64.7764C156.427 63.1047 156.137 62.5282 154.782 62.5282C153.995 62.5282 152.956 62.8173 151.711 63.3125V72.1442H148.998V60.5269H151.614V61.4549C152.879 60.7316 154.145 60.2363 155.451 60.2363C158.75 60.2363 159.188 62.133 159.188 64.7748V72.1411H156.427Z" fill="black"/>
<path d="M166.095 72.4519C163.794 72.4519 162.88 71.5427 162.88 69.1086V62.7141L160.7 62.5266V60.5237H162.88V57.5741H165.62V60.5237H168.46V62.7109H165.62V69.0695C165.62 70.1428 165.703 70.3475 166.698 70.3475C167.296 70.3475 168.129 70.3053 168.462 70.2663V72.1238C167.688 72.3285 166.895 72.4379 166.095 72.4519Z" fill="black"/>
<path d="M36.1863 64.8184H25.0377V67.179H36.1863V64.8184Z" fill="#266BDE"/>
<path d="M36.1863 62.4594H25.0424V61.3845C25.0424 60.6737 25.6126 60.0972 26.3156 60.0972H34.9177C35.6207 60.0987 36.191 60.6737 36.191 61.3845L36.1863 62.4594Z" fill="#266BDE"/>
<path d="M36.1863 69.5508H25.0424V70.6241C25.0424 71.3349 25.6126 71.9114 26.3156 71.9114H34.9177C35.6207 71.9099 36.191 71.3349 36.191 70.6241L36.1863 69.5508Z" fill="#266BDE"/>
<path fill-rule="evenodd" clip-rule="evenodd" d="M27.7092 54.8167H33.671C39.6218 54.8167 42.587 58.4787 42.587 65.9981C42.587 73.5174 39.6218 77.1514 33.671 77.1514H27.7092C21.7553 77.1514 18.7932 73.5237 18.7932 65.9981C18.7932 58.4724 21.7553 54.8167 27.7092 54.8167ZM33.2257 74.8095C33.2257 74.8095 30.5385 74.7985 33.2257 74.7985V74.7923C39.6108 74.7923 39.6108 70.9646 39.6108 66.034V66.0028V65.9715C39.6108 61.0409 39.6108 57.1867 33.2257 57.1867H28.1404C21.7553 57.1867 21.7553 61.0331 21.7553 65.959V66.0028V66.034C21.7553 70.9646 21.7553 74.7985 28.1404 74.7985C30.8276 74.7985 28.1404 74.8095 28.1404 74.8095H33.2257Z" fill="#266BDE"/>
</svg>
